<svg width="24" height="24" viewBox="0 0 24 24" fill="none" xmlns="http://www.w3.org/2000/svg">
<g clip-path="url(#clip0_2881_13601)">
<path d="M18.5595 0H5.44055C4.34039 0 3.44531 0.895078 3.44531 1.99523V15.1066C3.44531 16.2067 4.34039 17.1018 5.44055 17.1018H9.49045V21.4958C9.49045 22.8766 10.6138 24 11.9946 24H12.0054C13.3862 24 14.5095 22.8766 14.5095 21.4958V17.1018H18.5595C19.6596 17.1018 20.5546 16.2067 20.5546 15.1066V1.99523C20.5547 0.895078 19.6597 0 18.5595 0V0ZM13.1033 21.4958C13.1033 22.1012 12.6108 22.5938 12.0054 22.5938H11.9946C11.3892 22.5938 10.8967 22.1012 10.8967 21.4958V17.1018H13.1033V21.4958ZM19.1484 15.1066C19.1484 15.4313 18.8843 15.6955 18.5595 15.6955H5.44055C5.1158 15.6955 4.85156 15.4313 4.85156 15.1066V1.99523C4.85156 1.67048 5.1158 1.40625 5.44055 1.40625H18.5595C18.8843 1.40625 19.1484 1.67048 19.1484 1.99523V15.1066Z" fill="#AE7E03"/>
<path d="M12.0004 2.79102C8.82316 2.79102 6.23828 5.37481 6.23828 8.55069C6.23828 11.7266 8.82316 14.3104 12.0004 14.3104C15.1776 14.3104 17.7625 11.7266 17.7625 8.55069C17.7625 5.37481 15.1776 2.79102 12.0004 2.79102ZM12.0004 12.9041C9.59856 12.9041 7.64453 10.9512 7.64453 8.55069C7.64453 6.15022 9.59856 4.19727 12.0004 4.19727C14.4022 4.19727 16.3562 6.15022 16.3562 8.55069C16.3562 10.9512 14.4022 12.9041 12.0004 12.9041Z" fill="#AE7E03"/>
<path d="M13.0954 6.81176L11.1075 8.7987L10.5293 8.22068C10.2546 7.94614 9.80941 7.94623 9.53491 8.22092C9.26041 8.49556 9.26051 8.94073 9.53515 9.21528L10.6105 10.2901C10.7478 10.4274 10.9276 10.4959 11.1075 10.4959C11.2874 10.4959 11.4673 10.4273 11.6046 10.2901L14.0895 7.8064C14.3642 7.53186 14.3643 7.08668 14.0898 6.81204C13.8153 6.53736 13.3701 6.53726 13.0954 6.81176Z" fill="#AE7E03"/>
</g>
<defs>
<clipPath id="clip0_2881_13601">
<rect width="24" height="24" fill="white"/>
</clipPath>
</defs>
</svg>
