<svg width="84" height="74" viewBox="0 0 84 74" fill="none" xmlns="http://www.w3.org/2000/svg">
<path fill-rule="evenodd" clip-rule="evenodd" d="M6.21822 73.3871C5.13662 73.3915 4.0725 73.1144 3.13042 72.583C2.18835 72.0516 1.40073 71.2842 0.845005 70.3563C0.300816 69.4385 0.0136719 68.3911 0.0136719 67.3241C0.0136719 66.257 0.300816 65.2097 0.845005 64.2918L36.6273 3.65978C37.1854 2.73386 37.9733 1.9679 38.9146 1.43618C39.856 0.90446 40.9187 0.625 41.9998 0.625C43.081 0.625 44.1437 0.90446 45.085 1.43618C46.0264 1.9679 46.8143 2.73386 47.3724 3.65978L83.1603 64.2918C83.7045 65.2097 83.9916 66.257 83.9916 67.3241C83.9916 68.3911 83.7045 69.4385 83.1603 70.3563C82.6049 71.2845 81.8173 72.0521 80.8752 72.5836C79.933 73.115 78.8687 73.3919 77.7871 73.3871H6.21822ZM42.0215 17.4161C40.5371 17.4161 39.1134 18.0058 38.0638 19.0554C37.0141 20.1051 36.4244 21.5287 36.4244 23.0132V45.4016C36.4244 46.8861 37.0141 48.3097 38.0638 49.3594C39.1134 50.409 40.5371 50.9987 42.0215 50.9987C43.506 50.9987 44.9296 50.409 45.9793 49.3594C47.029 48.3097 47.6186 46.8861 47.6186 45.4016V23.0132C47.6186 21.5287 47.029 20.1051 45.9793 19.0554C44.9296 18.0058 43.506 17.4161 42.0215 17.4161ZM42.0215 67.79C43.1285 67.79 44.2107 67.4618 45.1311 66.8467C46.0516 66.2317 46.7689 65.3576 47.1926 64.3349C47.6162 63.3122 47.7271 62.1868 47.5111 61.101C47.2951 60.0153 46.7621 59.0179 45.9793 58.2352C45.1965 57.4524 44.1992 56.9193 43.1135 56.7033C42.0277 56.4874 40.9024 56.5983 39.8796 57.0219C38.8569 57.4455 37.9827 58.1629 37.3677 59.0833C36.7527 60.0038 36.4244 61.0859 36.4244 62.1929C36.4244 63.6774 37.0141 65.101 38.0638 66.1507C39.1134 67.2003 40.5371 67.79 42.0215 67.79Z" fill="#BF873E"/>
</svg>
