<svg width="24" height="24" viewBox="0 0 24 24" fill="none" xmlns="http://www.w3.org/2000/svg">
  <path d="M5.64462 19.6152H5.76923V19.7398C5.76923 20.4412 6.04786 21.1139 6.54382 21.6099C7.03978 22.1058 7.71245 22.3845 8.41385 22.3845H18.3554C19.0568 22.3845 19.7294 22.1058 20.2254 21.6099C20.7214 21.1139 21 20.4412 21 19.7398V7.02908C21 6.32768 20.7214 5.65502 20.2254 5.15905C19.7294 4.66309 19.0568 4.38446 18.3554 4.38446H18.2308V4.25985C18.2308 3.91255 18.1624 3.56866 18.0295 3.2478C17.8966 2.92694 17.7018 2.6354 17.4562 2.38982C17.2106 2.14425 16.9191 1.94945 16.5982 1.81654C16.2773 1.68364 15.9335 1.61523 15.5862 1.61523H5.64462C4.94322 1.61523 4.27055 1.89386 3.77459 2.38982C3.27863 2.88579 3 3.55845 3 4.25985V16.9706C3 17.672 3.27863 18.3447 3.77459 18.8406C4.27055 19.3366 4.94322 19.6152 5.64462 19.6152ZM18.3554 5.76908C18.689 5.7709 19.0084 5.90423 19.2443 6.14013C19.4802 6.37604 19.6136 6.69547 19.6154 7.02908V19.7398C19.6136 20.0735 19.4802 20.3929 19.2443 20.6288C19.0084 20.8647 18.689 20.998 18.3554 20.9998H8.41385C8.08023 20.998 7.7608 20.8647 7.5249 20.6288C7.289 20.3929 7.15566 20.0735 7.15385 19.7398V7.02908C7.15566 6.69547 7.289 6.37604 7.5249 6.14013C7.7608 5.90423 8.08023 5.7709 8.41385 5.76908H18.3554ZM4.38462 4.25985C4.38643 3.92624 4.51977 3.60681 4.75567 3.3709C4.99157 3.135 5.311 3.00167 5.64462 2.99985H15.5862C15.9198 3.00167 16.2392 3.135 16.4751 3.3709C16.711 3.60681 16.8443 3.92624 16.8462 4.25985V4.38446H8.41385C7.71245 4.38446 7.03978 4.66309 6.54382 5.15905C6.04786 5.65502 5.76923 6.32768 5.76923 7.02908V18.2306H5.64462C5.311 18.2288 4.99157 18.0955 4.75567 17.8596C4.51977 17.6237 4.38643 17.3042 4.38462 16.9706V4.25985Z" fill="#AE7E03"/>
</svg>
