<svg width="16" height="12" viewBox="0 0 16 12" fill="none" xmlns="http://www.w3.org/2000/svg">
<path fill-rule="evenodd" clip-rule="evenodd" d="M7.99913 4.20312C6.93512 4.20312 6.07031 5.00933 6.07031 6.00033C6.07031 6.99058 6.93512 7.79605 7.99913 7.79605C9.06314 7.79605 9.92874 6.99058 9.92874 6.00033C9.92874 5.00933 9.06314 4.20312 7.99913 4.20312ZM7.99992 8.91419C6.2743 8.91419 4.87109 7.60727 4.87109 6.00081C4.87109 4.39361 6.2743 3.08594 7.99992 3.08594C9.72553 3.08594 11.1295 4.39361 11.1295 6.00081C11.1295 7.60727 9.72553 8.91419 7.99992 8.91419Z" fill="#AE7E03"/>
<mask id="mask0_10_40134" style="mask-type:alpha" maskUnits="userSpaceOnUse" x="0" y="0" width="16" height="12">
<path fill-rule="evenodd" clip-rule="evenodd" d="M0 0H16V12H0V0Z" fill="white"/>
</mask>
<g mask="url(#mask0_10_40134)">
<path fill-rule="evenodd" clip-rule="evenodd" d="M1.25586 6.0011C2.74387 9.06276 5.25029 10.8831 7.99991 10.8838C10.7495 10.8831 13.2559 9.06276 14.744 6.0011C13.2559 2.94019 10.7495 1.11989 7.99991 1.11914C5.25109 1.11989 2.74387 2.94019 1.25586 6.0011ZM8.00146 12.0006H7.99826H7.99746C4.68864 11.9983 1.71741 9.83825 0.0486004 6.22074C-0.0162001 6.07991 -0.0162001 5.92046 0.0486004 5.77963C1.71741 2.16287 4.68944 0.00279416 7.99746 0.000558833C7.99906 -0.000186278 7.99906 -0.000186278 7.99986 0.000558833C8.00146 -0.000186278 8.00146 -0.000186278 8.00226 0.000558833C11.3111 0.00279416 14.2823 2.16287 15.9511 5.77963C16.0167 5.92046 16.0167 6.07991 15.9511 6.22074C14.2831 9.83825 11.3111 11.9983 8.00226 12.0006H8.00146Z" fill="#AE7E03"/>
</g>
</svg>
