<svg width="24" height="24" viewBox="0 0 24 24" fill="none" xmlns="http://www.w3.org/2000/svg">
<path fill-rule="evenodd" clip-rule="evenodd" d="M14.2571 20.3712L18.8942 12.3395C19.2128 11.7876 19.3087 11.1349 19.1622 10.5148L17.9329 5.31062C17.602 3.90982 16.1596 3.07704 14.7811 3.49089L9.65949 5.0284C9.04917 5.21161 8.53185 5.62097 8.21324 6.17283L3.57614 14.2045C2.88579 15.4002 3.29548 16.9292 4.49121 17.6196L10.8421 21.2862C12.0378 21.9766 13.5668 21.5669 14.2571 20.3712ZM20.1933 13.0895L15.5562 21.1212C14.4516 23.0343 12.0052 23.6898 10.0921 22.5853L3.74121 18.9186C1.82804 17.814 1.17254 15.3677 2.27711 13.4545L6.9142 5.42283C7.42398 4.53986 8.25169 3.88488 9.2282 3.59174L14.3498 2.05423C16.5555 1.39208 18.8633 2.72451 19.3928 4.96579L20.622 10.17C20.8564 11.1622 20.703 12.2065 20.1933 13.0895Z" fill="#AE7E03"/>
<path fill-rule="evenodd" clip-rule="evenodd" d="M12.7777 10.6004C13.2826 10.8919 13.9282 10.7189 14.2197 10.214C14.5111 9.70918 14.3382 9.06361 13.8333 8.77213C13.3284 8.48064 12.6829 8.65362 12.3914 9.15849C12.0999 9.66335 12.2729 10.3089 12.7777 10.6004ZM12.0277 11.8994C13.25 12.6051 14.813 12.1863 15.5187 10.964C16.2244 9.74174 15.8056 8.17879 14.5833 7.47309C13.361 6.76739 11.798 7.18619 11.0923 8.40849C10.3866 9.63079 10.8054 11.1937 12.0277 11.8994Z" fill="#AE7E03"/>
</svg>
