<svg width="24" height="24" viewBox="0 0 24 24" fill="none" xmlns="http://www.w3.org/2000/svg">
<g clip-path="url(#clip0_2881_13605)">
<path d="M20.2089 0H3.79111C1.70067 0 0 1.83933 0 4.10016V14.466C0 16.7268 1.70067 18.5661 3.79111 18.5661H8.72311L11.3774 23.6236C11.4989 23.8551 11.7387 24 12 24C12.2613 24 12.5011 23.8551 12.6226 23.6236L15.2769 18.5661H20.2089C22.2993 18.5661 24 16.7268 24 14.466V4.10016C24 1.83933 22.2993 0 20.2089 0V0ZM22.5938 14.466C22.5938 15.9514 21.5239 17.1599 20.2089 17.1599H14.8519C14.5905 17.1599 14.3508 17.3048 14.2293 17.5362L12 21.7838L9.77072 17.5362C9.64922 17.3048 9.40945 17.1599 9.14812 17.1599H3.79111C2.47608 17.1599 1.40625 15.9514 1.40625 14.466V4.10016C1.40625 2.61473 2.47608 1.40625 3.79111 1.40625H20.2089C21.5239 1.40625 22.5938 2.61473 22.5938 4.10016V14.466Z" fill="#AE7E03"/>
<path d="M11.2257 7.88228C11.6193 7.4147 11.8571 6.81189 11.8571 6.15433C11.8571 4.67242 10.6514 3.4668 9.16936 3.4668C7.6874 3.4668 6.48169 4.67242 6.48169 6.15433C6.48169 6.81189 6.71944 7.4147 7.113 7.88228C5.55173 8.59956 4.46484 10.178 4.46484 12.0056V12.0332C4.46484 12.7311 5.03259 13.2988 5.73047 13.2988H12.6082C13.3061 13.2988 13.8738 12.7311 13.8738 12.0332V12.0056C13.8738 10.178 12.787 8.59956 11.2257 7.88228ZM9.16936 4.87305C9.87595 4.87305 10.4508 5.44783 10.4508 6.15433C10.4508 6.86083 9.87595 7.43556 9.16936 7.43556C8.46281 7.43556 7.88794 6.86078 7.88794 6.15433C7.88794 5.44788 8.46281 4.87305 9.16936 4.87305ZM5.87316 11.8926C5.93278 10.2195 7.31254 8.87683 8.99995 8.87683H9.33881C11.0262 8.87683 12.406 10.2195 12.4656 11.8926H5.87316Z" fill="#AE7E03"/>
<path d="M18.0811 5.72021C17.9781 5.72021 17.8844 5.73896 17.8095 5.78575L16.5734 6.53486C16.386 6.64721 16.3018 6.83453 16.3018 7.03117C16.3018 7.32147 16.489 7.61176 16.7606 7.61176C16.8261 7.61176 16.9104 7.59301 16.9948 7.53686L17.2663 7.36829V12.1346C17.2663 12.4343 17.6316 12.5841 17.9968 12.5841C18.362 12.5841 18.7273 12.4343 18.7273 12.1346V6.17903C18.7273 5.89815 18.3808 5.72021 18.0811 5.72021Z" fill="#AE7E03"/>
</g>
<defs>
<clipPath id="clip0_2881_13605">
<rect width="24" height="24" fill="white"/>
</clipPath>
</defs>
</svg>
