<svg width="178" height="55" viewBox="0 0 178 55" fill="none" xmlns="http://www.w3.org/2000/svg">
<path d="M0 10.8754H6.89831L11.3729 44.6211H11.4972L15.9718 10.8754H22.2486L15.661 54.3782H6.58757L0 10.8754Z" fill="#737373"/>
<path d="M28.6395 10.8754H35.4757V54.3782H28.6395V10.8754Z" fill="#737373"/>
<path d="M43.7029 10.8754H52.2791L58.9289 36.9149H59.0532V10.8754H65.1435V54.3782H58.1209L49.9175 22.6211H49.7933V54.3782H43.7029V10.8754Z" fill="#737373"/>
<path d="M83.2132 54.9997C79.8573 54.9997 77.2886 54.0468 75.507 52.1409C73.7255 50.2351 72.8347 47.5421 72.8347 44.0618V21.1918C72.8347 17.7115 73.7255 15.0185 75.507 13.1127C77.2886 11.2068 79.8573 10.2539 83.2132 10.2539C86.5692 10.2539 89.1379 11.2068 90.9195 13.1127C92.701 15.0185 93.5918 17.7115 93.5918 21.1918V44.0618C93.5918 47.5421 92.701 50.2351 90.9195 52.1409C89.1379 54.0468 86.5692 54.9997 83.2132 54.9997ZM83.2132 48.785C85.5748 48.785 86.7556 47.3556 86.7556 44.4969V20.7567C86.7556 17.898 85.5748 16.4686 83.2132 16.4686C80.8517 16.4686 79.6709 17.898 79.6709 20.7567V44.4969C79.6709 47.3556 80.8517 48.785 83.2132 48.785Z" fill="#737373"/>
<path d="M101.322 10.8754H111.763C115.16 10.8754 117.708 11.7869 119.407 13.6098C121.106 15.4328 121.955 18.1051 121.955 21.6268V43.6268C121.955 47.1485 121.106 49.8208 119.407 51.6437C117.708 53.4667 115.16 54.3782 111.763 54.3782H101.322V10.8754ZM111.639 48.1635C112.757 48.1635 113.607 47.8321 114.187 47.1692C114.808 46.5063 115.119 45.4291 115.119 43.9375V21.3161C115.119 19.8245 114.808 18.7473 114.187 18.0844C113.607 17.4215 112.757 17.0901 111.639 17.0901H108.158V48.1635H111.639Z" fill="#737373"/>
<path d="M129.677 10.8754H148.321V17.0901H136.513V28.5872H145.897V34.8019H136.513V48.1635H148.321V54.3782H129.677V10.8754Z" fill="#737373"/>
<path d="M161.511 32.1296L153.991 10.8754H161.2L165.799 24.9206H165.923L170.646 10.8754H177.109L169.59 32.1296L177.482 54.3782H170.273L165.302 39.2144H165.177L160.081 54.3782H153.618L161.511 32.1296Z" fill="#737373"/>
<path fill-rule="evenodd" clip-rule="evenodd" d="M82.5625 0C81.4579 0 80.5625 0.895429 80.5625 2V7.89209C81.3832 7.74072 82.2665 7.66504 83.2123 7.66504C84.1119 7.66504 84.9549 7.73352 85.7414 7.87047V2C85.7414 0.895431 84.846 0 83.7414 0H82.5625Z" fill="#61654B"/>
</svg>
