<svg width="24" height="24" viewBox="0 0 24 24" fill="none" xmlns="http://www.w3.org/2000/svg">
<path fill-rule="evenodd" clip-rule="evenodd" d="M18 3.5L7 3.5C6.17157 3.5 5.5 4.17157 5.5 5L5.5 20C5.5 20.8284 6.17157 21.5 7 21.5L18 21.5C18.8284 21.5 19.5 20.8284 19.5 20L19.5 5C19.5 4.17157 18.8284 3.5 18 3.5ZM7 2C5.34315 2 4 3.34315 4 5L4 20C4 21.6569 5.34315 23 7 23L18 23C19.6569 23 21 21.6569 21 20L21 5C21 3.34315 19.6569 2 18 2L7 2Z" fill="#AE7E03"/>
<path fill-rule="evenodd" clip-rule="evenodd" d="M8 7.25C8 6.83579 8.33579 6.5 8.75 6.5H10.25C10.6642 6.5 11 6.83579 11 7.25C11 7.66421 10.6642 8 10.25 8H8.75C8.33579 8 8 7.66421 8 7.25Z" fill="#AE7E03"/>
<path fill-rule="evenodd" clip-rule="evenodd" d="M12 7.25C12 6.83579 12.3358 6.5 12.75 6.5H16.25C16.6642 6.5 17 6.83579 17 7.25C17 7.66421 16.6642 8 16.25 8H12.75C12.3358 8 12 7.66421 12 7.25Z" fill="#AE7E03"/>
<path fill-rule="evenodd" clip-rule="evenodd" d="M8 11.25C8 10.8358 8.33579 10.5 8.75 10.5H10.25C10.6642 10.5 11 10.8358 11 11.25C11 11.6642 10.6642 12 10.25 12H8.75C8.33579 12 8 11.6642 8 11.25Z" fill="#AE7E03"/>
<path fill-rule="evenodd" clip-rule="evenodd" d="M12 11.25C12 10.8358 12.3358 10.5 12.75 10.5H16.25C16.6642 10.5 17 10.8358 17 11.25C17 11.6642 16.6642 12 16.25 12H12.75C12.3358 12 12 11.6642 12 11.25Z" fill="#AE7E03"/>
<path fill-rule="evenodd" clip-rule="evenodd" d="M8 15.25C8 14.8358 8.33579 14.5 8.75 14.5H10.25C10.6642 14.5 11 14.8358 11 15.25C11 15.6642 10.6642 16 10.25 16H8.75C8.33579 16 8 15.6642 8 15.25Z" fill="#AE7E03"/>
<path fill-rule="evenodd" clip-rule="evenodd" d="M12 15.25C12 14.8358 12.3358 14.5 12.75 14.5H16.25C16.6642 14.5 17 14.8358 17 15.25C17 15.6642 16.6642 16 16.25 16H12.75C12.3358 16 12 15.6642 12 15.25Z" fill="#AE7E03"/>
</svg>
