<svg width="104" height="33" viewBox="0 0 104 33" fill="none" xmlns="http://www.w3.org/2000/svg">
<path d="M0 6.37295H4.04223L6.66421 26.1471H6.73705L9.35903 6.37295H13.0371L9.17695 31.8645H3.86015L0 6.37295Z" fill="#AE7E03"/>
<path d="M16.782 6.37295H20.7878V31.8645H16.782V6.37295Z" fill="#AE7E03"/>
<path d="M25.6087 6.37295H30.6342L34.5308 21.6315H34.6036V6.37295H38.1724V31.8645H34.0574L29.2504 13.2557H29.1775V31.8645H25.6087V6.37295Z" fill="#AE7E03"/>
<path d="M48.7608 32.2286C46.7943 32.2286 45.2891 31.6703 44.2451 30.5535C43.2012 29.4367 42.6792 27.8587 42.6792 25.8193V12.4181C42.6792 10.3788 43.2012 8.80072 44.2451 7.68395C45.2891 6.56717 46.7943 6.00879 48.7608 6.00879C50.7273 6.00879 52.2325 6.56717 53.2764 7.68395C54.3204 8.80072 54.8423 10.3788 54.8423 12.4181V25.8193C54.8423 27.8587 54.3204 29.4367 53.2764 30.5535C52.2325 31.6703 50.7273 32.2286 48.7608 32.2286ZM48.7608 28.587C50.1446 28.587 50.8365 27.7494 50.8365 26.0743V12.1632C50.8365 10.488 50.1446 9.65044 48.7608 9.65044C47.377 9.65044 46.685 10.488 46.685 12.1632V26.0743C46.685 27.7494 47.377 28.587 48.7608 28.587Z" fill="#AE7E03"/>
<path d="M59.3722 6.37295H65.4902C67.4809 6.37295 68.974 6.90706 69.9694 7.97528C70.9648 9.04349 71.4625 10.6094 71.4625 12.673V25.5644C71.4625 27.628 70.9648 29.1939 69.9694 30.2622C68.974 31.3304 67.4809 31.8645 65.4902 31.8645H59.3722V6.37295ZM65.4173 28.2228C66.0728 28.2228 66.5705 28.0286 66.9104 27.6402C67.2746 27.2517 67.4566 26.6205 67.4566 25.7465V12.4909C67.4566 11.6169 67.2746 10.9857 66.9104 10.5973C66.5705 10.2088 66.0728 10.0146 65.4173 10.0146H63.378V28.2228H65.4173Z" fill="#AE7E03"/>
<path d="M75.9872 6.37295H86.9121V10.0146H79.993V16.7516H85.4919V20.3933H79.993V28.2228H86.9121V31.8645H75.9872V6.37295Z" fill="#AE7E03"/>
<path d="M94.641 18.8274L90.2346 6.37295H94.4589L97.1537 14.6031H97.2265L99.9942 6.37295H103.782L99.3751 18.8274L104 31.8645H99.7757L96.8624 22.9789H96.7895L93.8034 31.8645H90.0161L94.641 18.8274Z" fill="#AE7E03"/>
<path fill-rule="evenodd" clip-rule="evenodd" d="M48.7263 0C47.8883 0 47.209 0.67934 47.209 1.51735V4.62444C47.6899 4.53576 48.2074 4.49142 48.7615 4.49142C49.2887 4.49142 49.7828 4.53156 50.2437 4.61183V1.51735C50.2437 0.679342 49.5643 0 48.7263 0Z" fill="#AE7E03"/>
</svg>
