<svg width="24" height="24" viewBox="0 0 24 24" fill="none" xmlns="http://www.w3.org/2000/svg">
<path d="M18.7203 3.38281H5.28027C3.21027 3.38281 1.53027 5.06281 1.53027 7.13281V16.8753C1.53027 18.9453 3.21027 20.6253 5.28027 20.6253H18.7203C20.7903 20.6253 22.4703 18.9453 22.4703 16.8753V7.13281C22.4703 5.06281 20.7903 3.38281 18.7203 3.38281ZM20.9703 16.8678C20.9703 18.1053 19.9578 19.1178 18.7203 19.1178H5.28027C4.04277 19.1178 3.03027 18.1053 3.03027 16.8678V7.13281C3.03027 5.89531 4.04277 4.88281 5.28027 4.88281H18.7203C19.9578 4.88281 20.9703 5.89531 20.9703 7.13281V16.8678ZM18.1803 8.34781C18.4128 8.69281 18.3153 9.15781 17.9703 9.39031L12.4128 13.0953C12.2853 13.1778 12.1428 13.2228 12.0003 13.2228C11.8578 13.2228 11.7078 13.1778 11.5878 13.0953L6.03027 9.39031C5.68527 9.15781 5.59527 8.69281 5.82027 8.34781C6.04527 8.00281 6.51777 7.91281 6.86277 8.13781L12.0003 11.5653L17.1378 8.13781C17.4828 7.90531 17.9478 8.00281 18.1803 8.34781Z" fill="#AE7E03"/>
</svg>
