<svg width="18" height="18" viewBox="0 0 18 18" fill="none" xmlns="http://www.w3.org/2000/svg">
<path d="M16.0453 0.78784C14.9948 -0.262613 13.2918 -0.262613 12.2413 0.78784L1.57753 11.4516C1.50445 11.5247 1.45168 11.6153 1.42413 11.7148L0.0218115 16.7774C-0.0358596 16.985 0.0227454 17.2073 0.174979 17.3597C0.327445 17.512 0.549724 17.5706 0.757293 17.5131L5.81998 16.1106C5.91944 16.083 6.01003 16.0303 6.08311 15.9572L11.4149 10.6252L16.7467 5.29319C17.7955 4.24203 17.7955 2.54039 16.7467 1.48923L16.0453 0.78784ZM2.87992 11.8401L11.6074 3.11243L14.4221 5.9271L5.69436 14.6548L2.87992 11.8401ZM2.31768 12.9683L4.56639 15.2173L1.45588 16.0791L2.31768 12.9683ZM15.9014 4.44797L15.2675 5.08188L12.4526 2.26697L13.0868 1.63306C13.6702 1.04958 14.6163 1.04958 15.1998 1.63306L15.9014 2.33445C16.484 2.91863 16.484 3.86402 15.9014 4.44797Z" fill="#737373"/>
</svg>
