<svg width="24" height="24" viewBox="0 0 24 24" fill="none" xmlns="http://www.w3.org/2000/svg">
<path d="M12.0002 13.3648C10.9594 13.366 9.9504 13.0065 9.14494 12.3473C8.33948 11.6882 7.7874 10.7702 7.58271 9.74979C7.5664 9.64229 7.57365 9.53254 7.60396 9.42813C7.63427 9.32372 7.68692 9.22715 7.75826 9.1451C7.82961 9.06306 7.91793 8.99751 8.01712 8.95299C8.11631 8.90847 8.224 8.88606 8.33271 8.88729C8.51139 8.88469 8.68512 8.94597 8.82262 9.0601C8.96012 9.17422 9.05235 9.33369 9.08271 9.50979C9.22396 10.184 9.59291 10.789 10.1276 11.2233C10.6623 11.6576 11.3301 11.8946 12.019 11.8946C12.7078 11.8946 13.3756 11.6576 13.9103 11.2233C14.445 10.789 14.814 10.184 14.9552 9.50979C14.9856 9.33369 15.0778 9.17422 15.2153 9.0601C15.3528 8.94597 15.5265 8.88469 15.7052 8.88729C15.8139 8.88606 15.9216 8.90847 16.0208 8.95299C16.12 8.99751 16.2083 9.06306 16.2797 9.1451C16.351 9.22715 16.4037 9.32372 16.434 9.42813C16.4643 9.53254 16.4715 9.64229 16.4552 9.74979C16.2493 10.7766 15.6917 11.6994 14.8785 12.3593C14.0653 13.0192 13.0474 13.3748 12.0002 13.3648Z" fill="#AE7E03"/>
<path d="M18.6751 23.2502H5.32508C5.0199 23.2506 4.71783 23.1889 4.43724 23.0688C4.15666 22.9488 3.90343 22.7729 3.69296 22.5519C3.48248 22.3309 3.31917 22.0694 3.21295 21.7833C3.10673 21.4972 3.05982 21.1925 3.07508 20.8877L3.68258 7.95768C3.70772 7.378 3.95583 6.83044 4.37509 6.42935C4.79436 6.02826 5.35236 5.80463 5.93258 5.80518H18.0676C18.6478 5.80463 19.2058 6.02826 19.6251 6.42935C20.0443 6.83044 20.2924 7.378 20.3176 7.95768L20.9251 20.8877C20.9403 21.1925 20.8934 21.4972 20.7872 21.7833C20.681 22.0694 20.5177 22.3309 20.3072 22.5519C20.0967 22.7729 19.8435 22.9488 19.5629 23.0688C19.2823 23.1889 18.9803 23.2506 18.6751 23.2502ZM5.93258 7.31268C5.73367 7.31268 5.5429 7.39169 5.40225 7.53235C5.2616 7.673 5.18258 7.86376 5.18258 8.06268L4.57508 20.9627C4.56999 21.0643 4.58563 21.1659 4.62104 21.2612C4.65644 21.3566 4.71088 21.4438 4.78104 21.5174C4.8512 21.5911 4.93561 21.6497 5.02913 21.6897C5.12266 21.7297 5.22335 21.7503 5.32508 21.7502H18.6751C18.7768 21.7503 18.8775 21.7297 18.971 21.6897C19.0646 21.6497 19.149 21.5911 19.2191 21.5174C19.2893 21.4438 19.3437 21.3566 19.3791 21.2612C19.4145 21.1659 19.4302 21.0643 19.4251 20.9627L18.8176 8.03268C18.8176 7.83376 18.7386 7.643 18.5979 7.50235C18.4573 7.36169 18.2665 7.28268 18.0676 7.28268L5.93258 7.31268Z" fill="#AE7E03"/>
<path d="M16.5 6.5625H15V5.25C15 4.45435 14.6839 3.69129 14.1213 3.12868C13.5587 2.56607 12.7956 2.25 12 2.25C11.2044 2.25 10.4413 2.56607 9.87868 3.12868C9.31607 3.69129 9 4.45435 9 5.25V6.5625H7.5V5.25C7.5 4.05653 7.97411 2.91193 8.81802 2.06802C9.66193 1.22411 10.8065 0.75 12 0.75C13.1935 0.75 14.3381 1.22411 15.182 2.06802C16.0259 2.91193 16.5 4.05653 16.5 5.25V6.5625Z" fill="#AE7E03"/>
</svg>
