<svg width="20" height="20" viewBox="0 0 20 20" fill="none" xmlns="http://www.w3.org/2000/svg">
<mask id="mask0_10_41103" style="mask-type:alpha" maskUnits="userSpaceOnUse" x="1" y="1" width="18" height="17">
<path fill-rule="evenodd" clip-rule="evenodd" d="M1.66699 1.66602H17.6862V17.3316H1.66699V1.66602Z" fill="white" stroke="white"/>
</mask>
<g mask="url(#mask0_10_41103)">
<path fill-rule="evenodd" clip-rule="evenodd" d="M9.67711 2.87248C5.9406 2.87248 2.90072 5.84441 2.90072 9.49839C2.90072 13.1524 5.9406 16.1251 9.67711 16.1251C13.4128 16.1251 16.4527 13.1524 16.4527 9.49839C16.4527 5.84441 13.4128 2.87248 9.67711 2.87248ZM9.67709 17.3316C5.26039 17.3316 1.66699 13.8175 1.66699 9.49838C1.66699 5.17924 5.26039 1.66602 9.67709 1.66602C14.0938 1.66602 17.6864 5.17924 17.6864 9.49838C17.6864 13.8175 14.0938 17.3316 9.67709 17.3316Z" fill="black"/>
<path d="M9.67711 2.37248C5.67512 2.37248 2.40072 5.55772 2.40072 9.49839H3.40072C3.40072 6.1311 6.20607 3.37248 9.67711 3.37248V2.37248ZM2.40072 9.49839C2.40072 13.439 5.67504 16.6251 9.67711 16.6251V15.6251C6.20615 15.6251 3.40072 12.8658 3.40072 9.49839H2.40072ZM9.67711 16.6251C13.6784 16.6251 16.9527 13.4389 16.9527 9.49839H15.9527C15.9527 12.8658 13.1472 15.6251 9.67711 15.6251V16.6251ZM16.9527 9.49839C16.9527 5.55776 13.6783 2.37248 9.67711 2.37248V3.37248C13.1473 3.37248 15.9527 6.13106 15.9527 9.49839H16.9527ZM9.67709 16.8316C5.52595 16.8316 2.16699 13.5309 2.16699 9.49838H1.16699C1.16699 14.1041 4.99484 17.8316 9.67709 17.8316V16.8316ZM2.16699 9.49838C2.16699 5.46592 5.52588 2.16602 9.67709 2.16602V1.16602C4.9949 1.16602 1.16699 4.89256 1.16699 9.49838H2.16699ZM9.67709 2.16602C13.8282 2.16602 17.1864 5.46585 17.1864 9.49838H18.1864C18.1864 4.89263 14.3593 1.16602 9.67709 1.16602V2.16602ZM17.1864 9.49838C17.1864 13.531 13.8282 16.8316 9.67709 16.8316V17.8316C14.3594 17.8316 18.1864 14.1041 18.1864 9.49838H17.1864Z" fill="black"/>
</g>
<mask id="mask1_10_41103" style="mask-type:alpha" maskUnits="userSpaceOnUse" x="13" y="13" width="6" height="6">
<path fill-rule="evenodd" clip-rule="evenodd" d="M14.2012 14.2988H18.3333V18.3322H14.2012V14.2988Z" fill="white" stroke="white"/>
</mask>
<g mask="url(#mask1_10_41103)">
<path fill-rule="evenodd" clip-rule="evenodd" d="M17.7166 18.3322C17.5596 18.3322 17.4016 18.2735 17.2807 18.1561L14.3823 15.3298C14.1413 15.0941 14.1405 14.712 14.3815 14.4764C14.6217 14.2391 15.0123 14.2407 15.2541 14.4748L18.1526 17.3019C18.3935 17.5376 18.3944 17.9188 18.1534 18.1545C18.0333 18.2735 17.8746 18.3322 17.7166 18.3322Z" fill="black"/>
<path d="M17.7166 18.3322C17.5595 18.3322 17.4016 18.2735 17.2807 18.1561L14.3823 15.3298C14.1413 15.0941 14.1405 14.712 14.3815 14.4764C14.6217 14.2391 15.0123 14.2407 15.2541 14.4748L18.1526 17.3019C18.3935 17.5376 18.3944 17.9188 18.1534 18.1545C18.0333 18.2735 17.8746 18.3322 17.7166 18.3322" stroke="black"/>
</g>
</svg>
