<svg width="20" height="20" viewBox="0 0 20 20" fill="none" xmlns="http://www.w3.org/2000/svg">
<path fill-rule="evenodd" clip-rule="evenodd" d="M10 18.5C14.6944 18.5 18.5 14.6944 18.5 10C18.5 5.30558 14.6944 1.5 10 1.5C5.30558 1.5 1.5 5.30558 1.5 10C1.5 14.6944 5.30558 18.5 10 18.5ZM10 20C15.5228 20 20 15.5228 20 10C20 4.47715 15.5228 0 10 0C4.47715 0 0 4.47715 0 10C0 15.5228 4.47715 20 10 20Z" fill="#737373"/>
<path fill-rule="evenodd" clip-rule="evenodd" d="M14.624 5.58405C14.8538 5.9287 14.7607 6.39435 14.416 6.62412L10.25 9.40147V14.0001C10.25 14.4143 9.91421 14.7501 9.5 14.7501C9.08579 14.7501 8.75 14.4143 8.75 14.0001V9.00008C8.75 8.74931 8.87533 8.51514 9.08397 8.37604L13.584 5.37604C13.9286 5.14628 14.3943 5.23941 14.624 5.58405Z" fill="#737373"/>
</svg>
