<svg width="20" height="10" viewBox="0 0 20 10" fill="none" xmlns="http://www.w3.org/2000/svg">
<path d="M15.3664 0.200195C12.256 0.200195 10.7048 2.51379 9.33602 4.55461C8.0232 6.51141 6.88961 8.2002 4.63363 8.2002C2.96082 8.2002 1.60004 6.765 1.60004 5.0002C1.60004 3.23539 2.96004 1.8002 4.63203 1.8002C5.65602 1.8002 6.50484 2.13781 7.30562 2.8666C7.48801 3.03059 7.66402 3.21141 7.82641 3.39941C8.11602 3.73383 8.62082 3.7698 8.9552 3.4818C9.28961 3.19219 9.32641 2.6866 9.03758 2.35219C8.82879 2.11219 8.60559 1.8834 8.37836 1.6802C7.28395 0.683398 6.05918 0.200195 4.63355 0.200195C2.07922 0.200195 0 2.35301 0 5.0002C0 7.64738 2.07922 9.8002 4.63359 9.8002C7.74398 9.8002 9.29519 7.4866 10.664 5.44578C11.9768 3.48899 13.1104 1.8002 15.3664 1.8002C17.0392 1.8002 18.4 3.23539 18.4 5.0002C18.4 6.765 17.04 8.2002 15.368 8.2002C14.344 8.2002 13.4952 7.86258 12.6944 7.13379C12.512 6.9698 12.336 6.78898 12.1736 6.60098C11.8832 6.26656 11.3792 6.23137 11.0448 6.51859C10.7104 6.8082 10.6736 7.31379 10.9624 7.6482C11.1712 7.8882 11.3944 8.11699 11.6216 8.3202C12.716 9.31699 13.9408 9.8002 15.3664 9.8002C17.9208 9.8002 20 7.64738 20 5.0002C20 2.35301 17.9208 0.200195 15.3664 0.200195Z" fill="#737373"/>
</svg>
