<svg width="24" height="24" viewBox="0 0 24 24" fill="none" xmlns="http://www.w3.org/2000/svg">
<path d="M12 2C6.48598 2 2 6.48598 2 12C2 17.514 6.48598 22 12 22C17.514 22 22 17.514 22 12C22 6.48598 17.514 2 12 2ZM12 20.8281C9.74828 20.8281 7.69117 19.9803 6.12996 18.5877C7.74859 17.1414 9.81094 16.3516 12 16.3516C14.1891 16.3516 16.2514 17.1414 17.87 18.5877C16.3088 19.9803 14.2517 20.8281 12 20.8281ZM18.6918 17.7517C16.0722 15.3859 13.1639 15.1797 12 15.1797C10.8327 15.1797 7.92719 15.387 5.3082 17.7516C3.97746 16.2056 3.17188 14.1952 3.17188 12C3.17188 7.13215 7.13215 3.17188 12 3.17188C16.8679 3.17188 20.8281 7.13215 20.8281 12C20.8281 14.1952 20.0225 16.2056 18.6918 17.7517Z" fill="#AE7E03"/>
<path d="M12.0003 5.13867C9.94391 5.13867 8.27637 6.80254 8.27637 8.86265V10.1178C8.27637 12.1743 9.94023 13.8418 12.0003 13.8418C14.0567 13.8418 15.7243 12.178 15.7243 10.1178V8.86265C15.7243 6.8059 14.0601 5.13867 12.0003 5.13867ZM14.5524 10.1178C14.5524 11.5274 13.4119 12.67 12.0003 12.67C10.6138 12.67 9.44824 11.5495 9.44824 10.1178V8.86265C9.44824 7.43097 10.6139 6.31055 12.0003 6.31055C13.4096 6.31055 14.5524 7.45086 14.5524 8.86265V10.1178Z" fill="#AE7E03"/>
</svg>
