<svg width="20" height="20" viewBox="0 0 20 20" fill="none" xmlns="http://www.w3.org/2000/svg">
<circle cx="10" cy="10" r="10" fill="#AE7E03"/>
<g clip-path="url(#clip0_252_43573)">
<path d="M12.8991 6.22413C12.8991 5.54915 12.8991 2.5 12.8991 2.5H12.3978H12.101H11.6C11.6 2.5 11.6 5.54915 11.6 6.22413C11.6 6.89912 10.3311 7.71849 10.3311 8.68049C10.3311 9.64226 10.3311 16.6 10.3311 16.8453C10.3311 17.0908 10.4952 17.5 10.863 17.5C11.1134 17.5 11.7302 17.5 12.1015 17.5C12.2768 17.5 12.3983 17.5 12.3983 17.5C12.7696 17.5 13.3862 17.5 13.6366 17.5C14.0046 17.5 14.169 17.0907 14.169 16.8453C14.169 16.6 14.169 9.64222 14.169 8.68049C14.1689 7.71849 12.8991 6.89955 12.8991 6.22413ZM11.8804 7.31773C11.7982 7.4299 11.7064 7.57134 11.6067 7.73453C11.5057 7.89815 11.4101 8.08884 11.3128 8.29572C11.2757 8.40147 11.2377 8.51226 11.2059 8.62325C11.2048 8.74089 11.1675 8.82765 11.1837 8.97528C11.1936 9.24902 11.2043 9.53694 11.2153 9.83496C11.235 10.4312 11.2386 11.0675 11.2437 11.7033C11.2423 12.9754 11.2039 14.248 11.1444 15.202C11.1183 15.679 11.0755 16.0763 11.0553 16.3546C11.0306 16.6329 11.01 16.7922 11.01 16.7922C11.01 16.7922 10.9892 16.6329 10.9645 16.3546C10.9443 16.0763 10.9015 15.679 10.8754 15.202C10.8159 14.248 10.7774 12.9754 10.7761 11.7033C10.7807 11.0675 10.7843 10.4312 10.8045 9.83496C10.8155 9.53698 10.8262 9.24902 10.8361 8.97528C10.8313 8.84825 10.8791 8.67569 10.9064 8.53834C10.9592 8.40904 11.0178 8.28907 11.0737 8.17603C11.1417 8.0721 11.206 7.97254 11.2678 7.87802C11.338 7.79173 11.4046 7.71026 11.4669 7.63288C11.5964 7.48364 11.7115 7.35752 11.8121 7.2591C12.0107 7.06045 12.1382 6.96294 12.1382 6.96294C12.1382 6.96294 12.0388 7.08996 11.8804 7.31773Z" fill="white"/>
<g clip-path="url(#clip1_252_43573)">
<path d="M9.12335 13.1177L8.20727 10.0141C8.19008 9.95592 8.15453 9.90482 8.10591 9.86848C8.05729 9.83214 7.99822 9.8125 7.93752 9.8125H4.56252C4.50182 9.8125 4.44274 9.83214 4.39413 9.86848C4.34551 9.90482 4.30995 9.95592 4.29277 10.0141L3.37668 13.1177C3.30021 13.3762 3.31919 13.6537 3.43017 13.8994C3.65643 14.3976 4.01045 14.827 4.45629 15.1442C4.90213 15.4614 5.42394 15.655 5.96877 15.7054V17.125H4.84377C4.76917 17.125 4.69764 17.1546 4.64489 17.2074C4.59215 17.2601 4.56252 17.3317 4.56252 17.4063C4.56252 17.4808 4.59215 17.5524 4.64489 17.6051C4.69764 17.6579 4.76917 17.6875 4.84377 17.6875H7.65627C7.73086 17.6875 7.8024 17.6579 7.85514 17.6051C7.90789 17.5524 7.93752 17.4808 7.93752 17.4063C7.93752 17.3317 7.90789 17.2601 7.85514 17.2074C7.8024 17.1546 7.73086 17.125 7.65627 17.125H6.53127V15.7054C7.0761 15.655 7.59791 15.4614 8.04375 15.1442C8.48959 14.827 8.8436 14.3976 9.06987 13.8994C9.18085 13.6536 9.19984 13.3762 9.12335 13.1177ZM6.37579 12.6547C5.45542 12.1945 4.71665 12.1948 4.19933 12.3176L4.77273 10.375H7.7273L8.45899 12.8538C8.08013 13.0118 7.36643 13.15 6.37579 12.6547Z" fill="white"/>
</g>
</g>
<defs>
<clipPath id="clip0_252_43573">
<rect width="15" height="15" fill="white" transform="translate(2.5 2.5)"/>
</clipPath>
<clipPath id="clip1_252_43573">
<rect width="9" height="9" fill="white" transform="translate(1.75 9.25)"/>
</clipPath>
</defs>
</svg>
