<svg width="321" height="193" viewBox="0 0 321 193" fill="none" xmlns="http://www.w3.org/2000/svg">
<path d="M2.63477 190.83L19.3382 148.891L36.0416 177.586L52.7451 110.263L69.4485 132.336L86.1519 99.2261L102.855 163.239L119.559 99.2261L136.262 125.714L152.966 70.5308L169.669 117.988L186.372 92.6041L203.076 147.787L219.779 110.263L236.483 125.714L253.186 50.6649L269.89 80.4638L286.593 45.1466L303.297 70.5308L320 1" stroke="url(#paint0_linear_372_1596)" stroke-width="0.6"/>
<ellipse cx="2.54777" cy="190.564" rx="2.54777" ry="2.43654" fill="#111111"/>
<ellipse cx="19.8726" cy="148.654" rx="2.54777" ry="2.43654" fill="#111111"/>
<ellipse cx="36.1782" cy="177.894" rx="2.54777" ry="2.43654" fill="#111111"/>
<ellipse cx="52.4842" cy="110.645" rx="2.54777" ry="2.43654" fill="#111111"/>
<ellipse cx="69.8088" cy="132.086" rx="2.54777" ry="2.43654" fill="#111111"/>
<ellipse cx="86.1146" cy="98.9497" rx="2.54777" ry="2.43654" fill="#111111"/>
<ellipse cx="103.439" cy="162.3" rx="2.54777" ry="2.43654" fill="#111111"/>
<ellipse cx="119.745" cy="98.9497" rx="2.54777" ry="2.43654" fill="#111111"/>
<ellipse cx="136.051" cy="125.265" rx="2.54777" ry="2.43654" fill="#111111"/>
<ellipse cx="153.376" cy="70.6851" rx="2.54777" ry="2.43654" fill="#111111"/>
<ellipse cx="169.681" cy="118.442" rx="2.54777" ry="2.43654" fill="#111111"/>
<ellipse cx="185.987" cy="93.1026" rx="2.54777" ry="2.43654" fill="#111111"/>
<ellipse cx="203.312" cy="147.68" rx="2.54777" ry="2.43654" fill="#111111"/>
<ellipse cx="219.618" cy="110.645" rx="2.54777" ry="2.43654" fill="#111111"/>
<ellipse cx="236.943" cy="125.265" rx="2.54777" ry="2.43654" fill="#111111"/>
<ellipse cx="253.248" cy="51.1934" rx="2.54777" ry="2.43654" fill="#111111"/>
<ellipse cx="269.554" cy="80.4326" rx="2.54777" ry="2.43654" fill="#111111"/>
<ellipse cx="286.879" cy="45.3457" rx="2.54777" ry="2.43654" fill="#111111"/>
<ellipse cx="303.185" cy="69.711" rx="2.54777" ry="2.43654" fill="#111111"/>
<defs>
<linearGradient id="paint0_linear_372_1596" x1="-22.4204" y1="1" x2="-22.4204" y2="373.303" gradientUnits="userSpaceOnUse">
<stop stop-color="#111111" stop-opacity="0.7"/>
<stop offset="1" stop-color="#111111" stop-opacity="0.3"/>
</linearGradient>
</defs>
</svg>
