<svg width="674" height="384" viewBox="0 0 674 384" fill="none" xmlns="http://www.w3.org/2000/svg">
<path d="M1 383L17.3902 335.439L33.7805 351.292L50.1707 321.85L66.561 342.233L82.9512 274.289L99.3415 327.512L115.732 299.202L132.122 351.292L148.512 246.733L164.902 283.348L181.293 254.66L197.683 312.791L214.073 195.775L230.463 254.66L246.854 203.702L263.244 246.733L279.634 151.611L296.024 290.142L312.415 82.5336L328.805 211.628L345.195 152.743L361.585 195.775L377.976 152.743L394.366 182.186L410.756 113.109L427.146 135.757L443.537 101.785L459.927 167.464L476.317 101.785L492.707 128.962L509.098 72.3419L525.488 121.036L541.878 94.9901L558.268 151.611L574.659 113.109L591.049 128.962L607.439 51.9585L623.829 82.5336L640.22 46.2964L656.61 72.3419L673 1" stroke="url(#paint0_linear_372_539)" stroke-width="0.6"/>
<circle cx="17.5" cy="335.5" r="2.5" fill="#111111"/>
<circle cx="33.5" cy="351.5" r="2.5" fill="#111111"/>
<circle cx="50.5" cy="322.5" r="2.5" fill="#111111"/>
<circle cx="66.5" cy="342.5" r="2.5" fill="#111111"/>
<circle cx="83.5" cy="274.5" r="2.5" fill="#111111"/>
<circle cx="99.5" cy="327.5" r="2.5" fill="#111111"/>
<circle cx="115.5" cy="299.5" r="2.5" fill="#111111"/>
<circle cx="132.5" cy="350.5" r="2.5" fill="#111111"/>
<circle cx="148.5" cy="246.5" r="2.5" fill="#111111"/>
<circle cx="164.5" cy="283.5" r="2.5" fill="#111111"/>
<circle cx="181.5" cy="254.5" r="2.5" fill="#111111"/>
<circle cx="197.5" cy="312.5" r="2.5" fill="#111111"/>
<circle cx="214.5" cy="196.5" r="2.5" fill="#111111"/>
<circle cx="230.5" cy="254.5" r="2.5" fill="#111111"/>
<circle cx="246.5" cy="203.5" r="2.5" fill="#111111"/>
<circle cx="263.5" cy="246.5" r="2.5" fill="#111111"/>
<circle cx="279.5" cy="152.5" r="2.5" fill="#111111"/>
<circle cx="296.5" cy="289.5" r="2.5" fill="#111111"/>
<circle cx="312.5" cy="83.5" r="2.5" fill="#111111"/>
<circle cx="328.5" cy="211.5" r="2.5" fill="#111111"/>
<circle cx="345.5" cy="152.5" r="2.5" fill="#111111"/>
<circle cx="361.5" cy="195.5" r="2.5" fill="#111111"/>
<circle cx="378.5" cy="152.5" r="2.5" fill="#111111"/>
<circle cx="394.5" cy="182.5" r="2.5" fill="#111111"/>
<circle cx="410.5" cy="113.5" r="2.5" fill="#111111"/>
<circle cx="427.5" cy="135.5" r="2.5" fill="#111111"/>
<circle cx="443.5" cy="101.5" r="2.5" fill="#111111"/>
<circle cx="460.5" cy="166.5" r="2.5" fill="#111111"/>
<circle cx="476.5" cy="101.5" r="2.5" fill="#111111"/>
<circle cx="492.5" cy="128.5" r="2.5" fill="#111111"/>
<circle cx="509.5" cy="72.5" r="2.5" fill="#111111"/>
<circle cx="525.5" cy="121.5" r="2.5" fill="#111111"/>
<circle cx="541.5" cy="95.5" r="2.5" fill="#111111"/>
<circle cx="558.5" cy="151.5" r="2.5" fill="#111111"/>
<circle cx="574.5" cy="113.5" r="2.5" fill="#111111"/>
<circle cx="591.5" cy="128.5" r="2.5" fill="#111111"/>
<circle cx="607.5" cy="52.5" r="2.5" fill="#111111"/>
<circle cx="623.5" cy="82.5" r="2.5" fill="#111111"/>
<circle cx="640.5" cy="46.5" r="2.5" fill="#111111"/>
<circle cx="656.5" cy="71.5" r="2.5" fill="#111111"/>
<defs>
<linearGradient id="paint0_linear_372_539" x1="337" y1="1" x2="337" y2="383" gradientUnits="userSpaceOnUse">
<stop stop-color="#111111" stop-opacity="0.7"/>
<stop offset="1" stop-color="#111111" stop-opacity="0.3"/>
</linearGradient>
</defs>
</svg>
