<svg width="54" height="54" viewBox="0 0 54 54" fill="none" xmlns="http://www.w3.org/2000/svg">
<rect x="0.5" y="0.5" width="53" height="53" rx="26.5" fill="white"/>
<path d="M21 22.6875C21.1438 20.9437 21.7611 19.562 22.852 18.5426C23.9514 17.5142 25.3425 17 27.0254 17C28.8097 17 30.2516 17.5053 31.351 18.5158C32.4503 19.5173 33 20.7961 33 22.3521C33 23.2285 32.8097 24.0423 32.4292 24.7934C32.0571 25.5446 31.351 26.3763 30.3108 27.2884C29.2706 28.2005 28.6321 28.9294 28.3953 29.4748C28.1586 30.0114 28.0402 30.9101 28.0402 32.171H25.8076C25.8076 30.5077 25.9894 29.2915 26.3531 28.5225C26.7167 27.7445 27.3848 26.9173 28.3573 26.0409C29.3383 25.1645 29.9471 24.4939 30.1839 24.0288C30.4207 23.5549 30.5391 23.0541 30.5391 22.5265C30.5391 21.4981 30.2178 20.653 29.5751 19.9913C28.9323 19.3206 28.0909 18.9852 27.0507 18.9852C25.0211 18.9852 23.8288 20.2193 23.4736 22.6875H21ZM28.3066 35.6251C28.3066 36.3844 27.7244 37 27.0063 37C26.2883 37 25.7061 36.3844 25.7061 35.6251C25.7061 34.8657 26.2883 34.2502 27.0063 34.2502C27.7244 34.2502 28.3066 34.8657 28.3066 35.6251Z" fill="black"/>
<rect x="0.5" y="0.5" width="53" height="53" rx="26.5" stroke="black"/>
</svg>
