<svg width="62" height="64" viewBox="0 0 62 64" fill="none" xmlns="http://www.w3.org/2000/svg">
<path opacity="0.1" d="M17.5636 37.012C20.4485 37.8688 22.6545 39.4967 24.1818 41.8956C25.8788 44.1232 26.7273 46.8648 26.7273 50.1205C26.7273 54.2329 25.4545 57.5743 22.9091 60.1446C20.3636 62.7149 17.2242 64 13.4909 64C9.41818 64 6.10909 62.7149 3.56364 60.1446C1.18788 57.403 0 54.0616 0 50.1205C0 48.0643 0.169697 46.0937 0.509091 44.2088C1.01818 42.1526 1.95151 39.2396 3.30909 35.4699L14 0H26.2182L17.5636 37.012ZM52.8364 37.012C55.7212 37.8688 57.9273 39.4967 59.4546 41.8956C61.1515 44.1232 62 46.8648 62 50.1205C62 54.2329 60.7273 57.5743 58.1818 60.1446C55.6364 62.7149 52.497 64 48.7636 64C44.6909 64 41.3818 62.7149 38.8364 60.1446C36.4606 57.403 35.2727 54.0616 35.2727 50.1205C35.2727 48.0643 35.4424 46.0937 35.7818 44.2088C36.2909 42.1526 37.2242 39.2396 38.5818 35.4699L49.2727 0H61.4909L52.8364 37.012Z" fill="white"/>
</svg>
