<svg width="35" height="36" viewBox="0 0 35 36" fill="none" xmlns="http://www.w3.org/2000/svg">
<path d="M27.257 4.13171L29.0123 1.27835C29.1681 1.02516 29.4996 0.946172 29.7528 1.10193L33.2735 3.26775C33.5267 3.4235 33.6057 3.75502 33.4499 4.00822L31.6946 6.86157M27.257 4.13171L31.6946 6.86157M27.257 4.13171L25.6272 6.78115M31.6946 6.86157L30.0648 9.51101M25.6272 6.78115L23.9973 9.4306L20.3898 9.57485C20.0315 9.58918 19.7038 9.781 19.5159 10.0864L8.5642 27.8893C8.25269 28.3957 8.41067 29.0588 8.91705 29.3703L17.4377 34.6119C17.9441 34.9234 18.6071 34.7654 18.9186 34.259L29.8703 16.4561C30.0582 16.1507 30.0817 15.7717 29.9329 15.4454L28.4349 12.1605L30.0648 9.51101M25.6272 6.78115L26.6236 10.1332L30.0648 9.51101" stroke="white" stroke-opacity="0.6" stroke-width="0.8"/>
<path d="M28.7117 18.0085L28.7558 28.0216M28.7558 28.0216L27.1426 28.0287L27.1623 32.5349L30.3889 32.5208L30.3691 28.0145L28.7558 28.0216Z" stroke="white" stroke-opacity="0.6" stroke-width="0.8"/>
<rect x="18.2373" y="12.1699" width="9.05325" height="15.7977" transform="rotate(31.5984 18.2373 12.1699)" stroke="white" stroke-opacity="0.6" stroke-width="0.8"/>
<rect x="16.5811" y="14.8613" width="9.03353" height="9.40999" transform="rotate(31.5984 16.5811 14.8613)" fill="white" stroke="white" stroke-opacity="0.6" stroke-width="0.8"/>
</svg>
