<svg width="25" height="26" viewBox="0 0 25 26" fill="none" xmlns="http://www.w3.org/2000/svg">
<path d="M20.2971 5.48654C18.8628 4.81575 17.3253 4.31995 15.7175 4.03802C15.7032 4.03517 15.6884 4.03701 15.6751 4.04328C15.6619 4.04955 15.6508 4.05994 15.6435 4.07302C15.4466 4.43175 15.2272 4.89936 15.0735 5.26878C13.3683 5.00458 11.6347 5.00458 9.92957 5.26878C9.75833 4.85936 9.56522 4.46016 9.35115 4.07302C9.3439 4.05978 9.33292 4.04916 9.31969 4.04255C9.30645 4.03595 9.2916 4.0337 9.27709 4.03608C7.67027 4.31801 6.13281 4.81381 4.69754 5.48557C4.68519 5.49094 4.67472 5.5001 4.66754 5.51182C1.75012 9.95944 0.950459 14.2972 1.34326 18.5805C1.34435 18.591 1.34749 18.6012 1.35249 18.6104C1.35749 18.6196 1.36423 18.6276 1.37232 18.634C3.07514 19.9196 4.97441 20.899 6.9906 21.531C7.00465 21.5355 7.01968 21.5355 7.03373 21.531C7.04778 21.5265 7.06019 21.5177 7.06934 21.5058C7.5032 20.9041 7.88766 20.2657 8.21869 19.5974C8.22328 19.5883 8.22593 19.5782 8.22645 19.5679C8.22697 19.5576 8.22536 19.5474 8.22171 19.5378C8.21807 19.5282 8.21248 19.5195 8.20533 19.5124C8.19817 19.5052 8.18962 19.4997 8.18025 19.4963C7.57465 19.2598 6.98786 18.9744 6.4253 18.6428C6.41519 18.6368 6.40667 18.6283 6.40051 18.618C6.39435 18.6078 6.39073 18.5961 6.38999 18.5841C6.38925 18.572 6.3914 18.56 6.39625 18.549C6.40111 18.5381 6.40851 18.5285 6.4178 18.5212C6.53592 18.4308 6.65404 18.3365 6.76654 18.2422C6.77667 18.2338 6.78886 18.2284 6.80178 18.2266C6.81469 18.2249 6.8278 18.227 6.83966 18.2325C10.5211 19.9474 14.5082 19.9474 18.1465 18.2325C18.1584 18.2266 18.1717 18.2243 18.1848 18.2259C18.1979 18.2274 18.2103 18.2327 18.2206 18.2413C18.3331 18.3365 18.4503 18.4308 18.5693 18.5212C18.5787 18.5284 18.5862 18.5378 18.5912 18.5487C18.5963 18.5595 18.5986 18.5715 18.598 18.5836C18.5975 18.5956 18.594 18.6073 18.588 18.6176C18.5821 18.628 18.5737 18.6366 18.5637 18.6428C18.0031 18.9772 17.42 19.2601 16.8078 19.4953C16.7984 19.4989 16.7898 19.5045 16.7827 19.5117C16.7755 19.5189 16.7699 19.5277 16.7663 19.5374C16.7627 19.547 16.7611 19.5574 16.7616 19.5677C16.7621 19.5781 16.7648 19.5882 16.7694 19.5974C17.1069 20.2653 17.4931 20.9011 17.9178 21.5048C17.9266 21.5172 17.9389 21.5264 17.953 21.5313C17.9671 21.5362 17.9823 21.5364 17.9965 21.532C20.0162 20.9017 21.9185 19.9219 23.6232 18.634C23.6316 18.628 23.6385 18.6202 23.6437 18.6111C23.6489 18.6021 23.6521 18.592 23.6532 18.5815C24.122 13.6293 22.8676 9.32657 20.3261 5.51376C20.3199 5.50137 20.3096 5.49171 20.2971 5.48654ZM8.76898 15.9722C7.66089 15.9722 6.74685 14.933 6.74685 13.6585C6.74685 12.383 7.64308 11.3448 8.76898 11.3448C9.90333 11.3448 10.8089 12.3918 10.7911 13.6585C10.7911 14.934 9.89489 15.9722 8.76898 15.9722V15.9722ZM16.2453 15.9722C15.1363 15.9722 14.2232 14.933 14.2232 13.6585C14.2232 12.383 15.1185 11.3448 16.2453 11.3448C17.3797 11.3448 18.2853 12.3918 18.2675 13.6585C18.2675 14.934 17.3806 15.9722 16.2453 15.9722V15.9722Z" fill="white"/>
</svg>
