<svg width="9" height="15" viewBox="0 0 9 15" fill="none" xmlns="http://www.w3.org/2000/svg">
<path d="M0 4.26559C0.107822 2.95775 0.570825 1.92153 1.38901 1.15694C2.21353 0.385647 3.25687 0 4.51903 0C5.85729 0 6.93869 0.37894 7.76321 1.13682C8.58774 1.88799 9 2.84708 9 4.01408C9 4.67136 8.85729 5.28169 8.57188 5.84507C8.29281 6.40845 7.76321 7.03219 6.98309 7.7163C6.20296 8.4004 5.7241 8.94701 5.54651 9.35614C5.36892 9.75855 5.28013 10.4326 5.28013 11.3783H3.60571C3.60571 10.1308 3.74207 9.21865 4.0148 8.64185C4.28753 8.05835 4.78858 7.43796 5.51797 6.78068C6.2537 6.12341 6.71036 5.62039 6.88795 5.27163C7.06554 4.91616 7.15433 4.54058 7.15433 4.14487C7.15433 3.37357 6.91332 2.73977 6.43129 2.24346C5.94926 1.74044 5.31818 1.48893 4.53805 1.48893C3.01586 1.48893 2.12156 2.41449 1.85518 4.26559H0ZM5.47992 13.9688C5.47992 14.5383 5.04332 15 4.50476 15C3.96619 15 3.5296 14.5383 3.5296 13.9688C3.5296 13.3993 3.96619 12.9376 4.50476 12.9376C5.04332 12.9376 5.47992 13.3993 5.47992 13.9688Z" fill="black"/>
</svg>
