<svg width="25" height="26" viewBox="0 0 25 26" fill="none" xmlns="http://www.w3.org/2000/svg">
<path fill-rule="evenodd" clip-rule="evenodd" d="M10.7147 9.31859H14.1966V11.053C14.6981 10.0555 15.9844 9.15922 17.9166 9.15922C21.6206 9.15922 22.5 11.1448 22.5 14.788V21.5352H18.75V15.6177C18.75 13.543 18.2484 12.373 16.9716 12.373C15.2006 12.373 14.4647 13.6339 14.4647 15.6167V21.5352H10.7147V9.31859ZM4.28437 21.3758H8.03438V9.15922H4.28437V21.3758ZM8.57156 5.17578C8.5717 5.4901 8.50937 5.80131 8.38818 6.09133C8.26699 6.38135 8.08936 6.64439 7.86562 6.86516C7.41225 7.31574 6.79857 7.56796 6.15938 7.56641C5.5213 7.56598 4.90904 7.31441 4.455 6.86609C4.23207 6.64457 4.05505 6.38124 3.93407 6.09119C3.8131 5.80113 3.75054 5.49005 3.75 5.17578C3.75 4.54109 4.00313 3.93359 4.45594 3.48547C4.90958 3.03655 5.5221 2.78488 6.16031 2.78516C6.79969 2.78516 7.41281 3.03734 7.86562 3.48547C8.3175 3.93359 8.57156 4.54109 8.57156 5.17578Z" fill="white"/>
</svg>
