<svg width="108" height="31" viewBox="0 0 108 31" fill="none" xmlns="http://www.w3.org/2000/svg">
<path d="M0 6.12997H4.1977L6.92053 25.1503H6.99616L9.71899 6.12997H13.5385L9.52991 30.6497H4.00861L0 6.12997Z" fill="#111111"/>
<path d="M17.4275 6.12997H21.5874V30.6497H17.4275V6.12997Z" fill="#111111"/>
<path d="M26.5937 6.12997H31.8124L35.8589 20.8068H35.9345V6.12997H39.6406V30.6497H35.3673L30.3754 12.7503H30.2998V30.6497H26.5937V6.12997Z" fill="#111111"/>
<path d="M50.6362 31C48.5941 31 47.031 30.4629 45.9469 29.3887C44.8628 28.3145 44.3207 26.7966 44.3207 24.835V11.9446C44.3207 9.98307 44.8628 8.46518 45.9469 7.39098C47.031 6.31678 48.5941 5.77968 50.6362 5.77968C52.6783 5.77968 54.2414 6.31678 55.3255 7.39098C56.4096 8.46518 56.9517 9.98307 56.9517 11.9446V24.835C56.9517 26.7966 56.4096 28.3145 55.3255 29.3887C54.2414 30.4629 52.6783 31 50.6362 31ZM50.6362 27.4972C52.0732 27.4972 52.7918 26.6915 52.7918 25.0802V11.6995C52.7918 10.0882 52.0732 9.28251 50.6362 9.28251C49.1992 9.28251 48.4806 10.0882 48.4806 11.6995V25.0802C48.4806 26.6915 49.1992 27.4972 50.6362 27.4972Z" fill="#111111"/>
<path d="M61.6557 6.12997H68.009C70.0764 6.12997 71.6269 6.64371 72.6605 7.67121C73.6942 8.6987 74.211 10.2049 74.211 12.1898V24.5898C74.211 26.5748 73.6942 28.081 72.6605 29.1085C71.6269 30.136 70.0764 30.6497 68.009 30.6497H61.6557V6.12997ZM67.9334 27.1469C68.6141 27.1469 69.1309 26.9601 69.4839 26.5864C69.8621 26.2128 70.0511 25.6057 70.0511 24.765V12.0147C70.0511 11.174 69.8621 10.5669 69.4839 10.1932C69.1309 9.8196 68.6141 9.63279 67.9334 9.63279H65.8156V27.1469H67.9334Z" fill="#111111"/>
<path d="M78.9098 6.12997H90.2549V9.63279H83.0697V16.113H88.7801V19.6158H83.0697V27.1469H90.2549V30.6497H78.9098V6.12997Z" fill="#111111"/>
<path d="M98.281 18.1096L93.7051 6.12997H98.0919L100.89 14.0463H100.966L103.84 6.12997H107.773L103.197 18.1096L108 30.6497H103.613L100.588 22.1028H100.512L97.4112 30.6497H93.4782L98.281 18.1096Z" fill="#111111"/>
<path d="M50.5984 0C49.7281 0 49.0227 0.653444 49.0227 1.45951V4.44835C49.5224 4.3629 50.0602 4.32018 50.6362 4.32018C51.1832 4.32018 51.6958 4.35871 52.1741 4.43578V1.45951C52.1741 0.653444 51.4686 0 50.5984 0Z" fill="#111111"/>
</svg>
