<svg width="137" height="40" viewBox="0 0 137 40" fill="none" xmlns="http://www.w3.org/2000/svg">
<path fill-rule="evenodd" clip-rule="evenodd" d="M62.1861 1.88324C62.1861 0.843154 63.081 0 64.185 0C65.2889 0 66.1838 0.843154 66.1838 1.88324V5.72359C65.5771 5.62414 64.9268 5.57442 64.233 5.57442C63.5023 5.57442 62.8201 5.62955 62.1861 5.7398V1.88324ZM56.2398 14.7157C56.2427 14.6618 56.2459 14.6081 56.2495 14.5548C57.7511 14.2936 59.6649 14.117 61.5393 14.381C61.7347 12.7786 62.6326 11.9774 64.233 11.9774C66.0559 11.9774 66.9673 13.017 66.9673 15.0961V16.0733C68.992 16.4455 70.9156 16.1654 72.2442 15.8346V15.4124C72.2442 12.8814 71.5566 10.9228 70.1814 9.53675C68.8063 8.15069 66.8234 7.45766 64.233 7.45766C61.6425 7.45766 59.6597 8.15069 58.2845 9.53675C57.0382 10.7929 56.3567 12.5192 56.2398 14.7157ZM66.9673 32.3616C66.9673 32.3657 66.9673 32.3697 66.9673 32.3738C66.9673 32.3699 66.9673 32.366 66.9673 32.3621V32.3616ZM66.9567 32.7392C66.8499 34.5666 65.942 35.4802 64.233 35.4802C62.524 35.4802 61.6161 34.5666 61.5093 32.7392C61.6159 34.5669 62.5238 35.4807 64.233 35.4807C65.9421 35.4807 66.85 34.5669 66.9567 32.7392ZM5.32486 7.90963H0L5.085 39.548H12.0889L17.1739 7.90963H12.3287L8.87476 32.452H8.77882L5.32486 7.90963ZM27.384 7.90963H22.1071V39.548H27.384V7.90963ZM33.7346 7.90963H40.3547L45.4876 26.8475H45.5836V7.90963H50.2848V39.548H44.864L38.5318 16.452H38.4358V39.548H33.7346V7.90963ZM78.2115 7.90963H86.2707C88.8932 7.90963 90.86 8.57253 92.1712 9.89833C93.4824 11.2241 94.1381 13.1676 94.1381 15.7288V31.7288C94.1381 34.29 93.4824 36.2335 92.1712 37.5593C90.86 38.8851 88.8932 39.548 86.2707 39.548H78.2115V7.90963ZM86.1748 35.0283C87.0382 35.0283 87.6939 34.7872 88.1416 34.3051C88.6213 33.823 88.8612 33.0396 88.8612 31.9548V15.5028C88.8612 14.4181 88.6213 13.6347 88.1416 13.1526C87.6939 12.6705 87.0382 12.4294 86.1748 12.4294H83.4883V35.0283H86.1748ZM114.49 7.90963H100.099V39.548H114.49V35.0283H105.375V25.3107H112.619V20.791H105.375V12.4294H114.49V7.90963ZM124.671 23.3672L118.867 7.90963H124.431L127.981 18.1243H128.077L131.723 7.90963H136.712L130.908 23.3672L137 39.548H131.435L127.598 28.5198H127.502L123.568 39.548H118.579L124.671 23.3672Z" fill="white"/>
<path opacity="0.3" fill-rule="evenodd" clip-rule="evenodd" d="M58.2845 37.9209C59.6596 39.307 61.6425 40 64.2329 40C66.8234 40 68.8063 39.307 70.1814 37.9209C71.5566 36.5348 72.2442 34.5763 72.2442 32.0452V15.8341C70.9156 16.1649 68.992 16.445 66.9673 16.0729V32.3616C66.9673 34.4407 66.0559 35.4802 64.2329 35.4802C62.41 35.4802 61.4986 34.4407 61.4986 32.3616V15.0961C61.4986 14.8421 61.5122 14.6036 61.5394 14.3806C59.665 14.1165 57.7511 14.2931 56.2495 14.5543C56.2309 14.8326 56.2217 15.1187 56.2217 15.4125V32.0452C56.2217 34.5763 56.9093 36.5348 58.2845 37.9209Z" fill="white"/>
</svg>
