<svg width="35" height="35" viewBox="0 0 35 35" fill="none" xmlns="http://www.w3.org/2000/svg">
<path d="M34.2333 14.6798C36.2368 22.787 28.5074 15.7022 25.0115 25.2334C20.2995 38.0797 6.50614 30.1342 4.50265 22.027C2.49915 13.9198 7.53042 5.70293 15.7403 3.67406C23.9502 1.64518 32.2298 6.57262 34.2333 14.6798Z" stroke="white" stroke-opacity="0.6" stroke-width="0.8"/>
<path d="M26.3906 11.5033L22.6085 26.3131L24.3399 26.7974L28.7908 12.1747M26.3906 11.5033L27.5029 7.14746L30.0999 7.8739L28.7908 12.1747M26.3906 11.5033L28.7908 12.1747" stroke="white" stroke-opacity="0.6" stroke-width="0.8"/>
<path d="M28.2291 9.21723C25.0657 8.33235 27.6405 0.652001 31.9901 1.86869C30.23 3.58703 31.4678 5.25967 31.9146 6.71107C32.3615 8.16247 31.3925 10.1021 28.2291 9.21723Z" fill="white"/>
<ellipse cx="11.8125" cy="23.1875" rx="3.0625" ry="3.0625" stroke="white" stroke-opacity="0.6" stroke-width="0.8"/>
<circle cx="10.9375" cy="22.3125" r="2.1875" fill="white"/>
<circle cx="11.8125" cy="13.5625" r="3.0625" stroke="white" stroke-opacity="0.6" stroke-width="0.8"/>
<circle cx="10.9375" cy="12.6875" r="2.1875" fill="white"/>
<ellipse cx="19.6875" cy="9.1875" rx="3.0625" ry="3.0625" stroke="white" stroke-opacity="0.6" stroke-width="0.8"/>
<ellipse cx="18.8125" cy="8.3125" rx="2.1875" ry="2.1875" fill="white"/>
</svg>
