<svg width="159" height="41" viewBox="0 0 159 41" fill="none" xmlns="http://www.w3.org/2000/svg">
<g opacity="0.6" clip-path="url(#clip0_372_808)">
<path d="M79.593 8.56562V32.4823C79.593 32.6645 79.4535 32.8467 79.2211 32.8467H76.6641C75.5018 32.8467 74.386 32.2545 73.7351 31.2978L62.2053 13.8501L62.5772 22.5512V32.5278C62.5772 32.7101 62.4377 32.8923 62.2053 32.8923H58.8579C58.672 32.8923 58.486 32.7556 58.486 32.5278V8.56562C58.486 8.38339 58.6255 8.20117 58.8579 8.20117H61.3684C62.5307 8.20117 63.6465 8.79339 64.2974 9.75006L75.8272 27.1523L75.4553 18.4512V8.56562C75.4553 8.38339 75.5948 8.20117 75.8272 8.20117H79.1746C79.4535 8.20117 79.593 8.33784 79.593 8.56562Z" fill="black"/>
<path d="M113.904 32.8012H110.37C110.138 32.8012 109.952 32.5734 110.045 32.3456L119.436 8.52006C119.529 8.33784 119.715 8.20117 119.901 8.20117H124.364C124.597 8.20117 124.783 8.33784 124.829 8.52006L134.267 32.3456C134.36 32.5734 134.174 32.8012 133.941 32.8012H130.408C130.268 32.8012 130.129 32.7101 130.083 32.5734L122.504 12.9845C122.411 12.7112 121.947 12.7112 121.854 12.9845L114.275 32.5734C114.183 32.7101 114.043 32.8012 113.904 32.8012Z" fill="black"/>
<path d="M158.907 32.2545L151.84 23.4167C155.839 22.6878 158.163 20.0456 158.163 15.9912C158.163 11.3445 155.095 8.20117 149.609 8.20117H139.753C139.474 8.20117 139.241 8.42895 139.241 8.70228C139.241 10.5245 140.729 11.9823 142.589 11.9823H149.237C152.538 11.9823 154.118 13.6223 154.118 16.0367C154.118 18.4512 152.584 20.0912 149.237 20.0912H139.846C139.567 20.0912 139.334 20.3189 139.334 20.5923V32.4367C139.334 32.6189 139.474 32.8012 139.706 32.8012H143.054C143.239 32.8012 143.425 32.6645 143.425 32.4367V23.6445H147.284L153.421 31.4801C154.072 32.3456 155.095 32.8012 156.211 32.8012H158.768C158.954 32.8012 159.093 32.4823 158.907 32.2545Z" fill="black"/>
<path d="M103.304 8.20117H87.729C87.45 8.20117 87.2641 8.38339 87.2641 8.65673C87.2641 10.4789 88.7983 11.9823 90.6579 11.9823H103.304C103.49 11.9823 103.675 11.8456 103.675 11.6178V8.52006C103.629 8.33784 103.49 8.20117 103.304 8.20117ZM103.304 29.0201H91.6807C91.4948 29.0201 91.3088 28.8834 91.3088 28.6556V22.5056C91.3088 22.3234 91.4483 22.1412 91.6807 22.1412H102.42C102.606 22.1412 102.792 22.0045 102.792 21.7767V18.679C102.792 18.4967 102.653 18.3145 102.42 18.3145H87.7755C87.4965 18.3145 87.2641 18.5423 87.2641 18.8156V32.2545C87.2641 32.5278 87.4965 32.7556 87.7755 32.7556H103.304C103.49 32.7556 103.675 32.6189 103.675 32.3912V29.2934C103.629 29.1567 103.49 29.0201 103.304 29.0201Z" fill="black"/>
<path d="M33.5667 2.09556L24.8263 14.8056C24.2219 15.6711 25.3842 16.7189 26.2211 15.99L34.8219 8.65556C35.0544 8.47333 35.3798 8.61 35.3798 8.92889V31.8433C35.3798 32.1622 34.9614 32.2989 34.7754 32.0711L8.74035 1.54889C7.90351 0.546667 6.69474 0 5.34649 0H4.41667C1.99912 0 0 1.95889 0 4.37333V36.6267C0 39.0411 1.99912 41 4.46316 41C5.99737 41 7.4386 40.2256 8.27544 38.9044L17.0158 26.1944C17.6202 25.3289 16.4579 24.2811 15.6211 25.01L7.02018 32.2989C6.78772 32.4811 6.46228 32.3444 6.46228 32.0256V9.15667C6.46228 8.83778 6.8807 8.70111 7.06667 8.92889L33.1018 39.4511C33.9386 40.4533 35.1939 41 36.4956 41H37.4254C39.8895 41 41.8886 39.0411 41.8886 36.6267V4.37333C41.8421 1.95889 39.843 0 37.3789 0C35.8447 0 34.4035 0.774444 33.5667 2.09556Z" fill="black"/>
</g>
<defs>
<clipPath id="clip0_372_808">
<rect width="159" height="41" fill="white"/>
</clipPath>
</defs>
</svg>
