<svg width="190" height="223" viewBox="0 0 190 223" fill="none" xmlns="http://www.w3.org/2000/svg">
<ellipse cx="95" cy="172" rx="94" ry="50" stroke="url(#paint0_linear_372_652)" stroke-width="0.6"/>
<ellipse cx="95" cy="51" rx="94" ry="50" stroke="url(#paint1_linear_372_652)" stroke-width="0.6"/>
<path d="M103.614 73.8227C103.614 79.2178 112.78 82.5644 112.78 90.2674M103.614 73.8227L102.037 41.5185M103.614 73.8227C103.088 74.8553 100.717 76.9203 95.4351 76.9203C90.1536 76.9203 87.782 74.8553 87.2564 73.8227M87.2564 73.8227C87.2564 79.2178 78.0905 82.5644 78.0905 90.2674M87.2564 73.8227L88.8332 41.5185M78.0905 90.2674V157.789C78.0905 163.883 85.8559 168.824 95.4351 168.824C105.014 168.824 112.78 163.883 112.78 157.789V90.2674M78.0905 90.2674C79.2776 92.286 84.4086 96.323 95.4351 96.323C106.462 96.323 111.593 92.286 112.78 90.2674M102.037 41.5185C102.037 39.1284 99.245 37.1909 95.4351 37.1909C91.6252 37.1909 88.8332 39.1284 88.8332 41.5185M102.037 41.5185C101.346 42.2318 99.0583 43.6585 95.4351 43.6585C91.812 43.6585 89.5242 42.2318 88.8332 41.5185" stroke="white" stroke-width="0.8"/>
<path d="M104.775 122.643C99.7046 121.076 98.3167 124.734 95.4351 124.734V112.41C98.3167 112.41 96.5025 113.848 102.907 113.129C109.311 112.41 111.903 116.975 112.78 118.466C111.903 119.957 109.845 124.21 104.775 122.643Z" stroke="white" stroke-width="0.8" stroke-linejoin="bevel"/>
<path d="M112.78 118.678C111.903 120.169 111.179 126.514 105.575 127.141C99.9714 127.767 101.039 124.007 95.4351 124.734" stroke="white" stroke-width="0.8" stroke-linejoin="bevel"/>
<path d="M102.037 41.5185C102.037 39.1285 99.245 37.191 95.4351 37.191C91.6252 37.191 88.8332 39.1285 88.8332 41.5185M102.037 41.5185C101.346 42.2319 99.0583 43.6586 95.4351 43.6586C91.812 43.6586 89.5242 42.2319 88.8332 41.5185M102.037 41.5185L102.621 53.4884M88.8332 41.5185L88.2489 53.4884M88.1418 55.6823L87.2564 73.8228C87.782 74.8553 90.1536 76.9204 95.4351 76.9204C100.717 76.9204 103.088 74.8553 103.614 73.8228L102.728 55.6823M88.1418 55.6823C88.1418 55.6823 89.8315 58.503 95.4351 58.503C101.039 58.503 102.728 55.6823 102.728 55.6823M88.1418 55.6823L88.2489 53.4884M102.728 55.6823L102.621 53.4884M88.2489 53.4884C88.2489 53.4884 89.5646 56.3091 95.4351 56.3091C101.306 56.3091 102.621 53.4884 102.621 53.4884" stroke="white" stroke-width="0.8"/>
<path d="M88.8332 41.5185C88.8332 39.1285 91.6252 37.191 95.4351 37.191C99.245 37.191 102.037 39.1285 102.037 41.5185L102.224 45.3397C102.224 45.3397 101.039 47.847 95.4351 47.847C89.8314 47.847 88.6466 45.3397 88.6466 45.3397L88.8332 41.5185Z" fill="white"/>
<path d="M102.037 41.5185C102.037 39.1285 99.245 37.191 95.4351 37.191C91.6252 37.191 88.8332 39.1285 88.8332 41.5185M102.037 41.5185C101.346 42.2319 99.0583 43.6586 95.4351 43.6586C91.8119 43.6586 89.5242 42.2319 88.8332 41.5185M102.037 41.5185L102.224 45.3397C102.224 45.3397 101.039 47.847 95.4351 47.847C89.8314 47.847 88.6466 45.3397 88.6466 45.3397L88.8332 41.5185" stroke="white" stroke-width="0.8"/>
<path d="M78.0905 145.252V102.804C79.2776 104.822 84.4086 108.859 95.4351 108.859V156.287C85.8559 156.287 78.0905 151.347 78.0905 145.252Z" stroke="white" stroke-width="0.8"/>
<path d="M78.0905 142.387V138.109C79.2776 140.128 84.4086 146.672 95.4351 146.672V152.73C85.8559 152.73 78.0905 146.775 78.0905 142.387Z" fill="white"/>
<path d="M78.0905 109.903C79.2776 111.921 84.4086 115.958 95.4351 115.958" stroke="white" stroke-width="0.8"/>
<path d="M50.3044 79.6533L35.6281 103.641M50.3044 79.6533L64.9807 103.641M50.3044 79.6533V97.181M35.6281 103.641L50.3044 112.226M35.6281 103.641L50.3044 97.181M50.3044 112.226L64.9807 103.641M50.3044 112.226V97.181M64.9807 103.641L50.3044 97.181M50.3044 115.497L35.6281 106.503L50.3044 126.617M50.3044 115.497L64.9807 106.503L50.3044 126.617M50.3044 115.497V126.617" stroke="white" stroke-width="0.8"/>
<path d="M50.0376 112.208V97.2646L64.9807 103.732L50.0376 112.208Z" fill="white"/>
<path d="M130.408 154.387L121.402 169.107M130.408 154.387L139.414 169.107M130.408 154.387V165.143M121.402 169.107L130.408 174.375M121.402 169.107L130.408 165.143M130.408 174.375L139.414 169.107M130.408 174.375V165.143M139.414 169.107L130.408 165.143M130.408 176.382L121.402 170.863L130.408 183.206M130.408 176.382L139.414 170.863L130.408 183.206M130.408 176.382V183.206" stroke="white" stroke-width="0.8"/>
<path d="M130.408 37.1909L125.117 45.8378M130.408 37.1909L135.698 45.8378M130.408 37.1909V43.5092M125.117 45.8378L130.408 48.9327M125.117 45.8378L130.408 43.5092M130.408 48.9327L135.698 45.8378M130.408 48.9327V43.5092M135.698 45.8378L130.408 43.5092M130.408 50.1117L125.117 46.8694L130.408 54.1203M130.408 50.1117L135.698 46.8694L130.408 54.1203M130.408 50.1117V54.1203" stroke="white" stroke-width="0.8"/>
<defs>
<linearGradient id="paint0_linear_372_652" x1="95" y1="122" x2="95" y2="222" gradientUnits="userSpaceOnUse">
<stop stop-color="white" stop-opacity="0"/>
<stop offset="0.0001" stop-color="white" stop-opacity="0"/>
<stop offset="1" stop-color="white" stop-opacity="0.6"/>
</linearGradient>
<linearGradient id="paint1_linear_372_652" x1="95" y1="1" x2="95" y2="101" gradientUnits="userSpaceOnUse">
<stop stop-color="white" stop-opacity="0"/>
<stop offset="0.0001" stop-color="white" stop-opacity="0"/>
<stop offset="1" stop-color="white" stop-opacity="0.6"/>
</linearGradient>
</defs>
</svg>
