<svg width="147" height="108" viewBox="0 0 147 108" fill="none" xmlns="http://www.w3.org/2000/svg">
<path d="M88.5332 8.46631L88.2047 8.84323L88.5332 8.46631ZM63.5567 3.62818L63.8968 3.99468L63.9164 3.97644L63.934 3.95622L63.5567 3.62818ZM96.7617 32.5701L96.3844 32.242L96.3668 32.2623L96.3515 32.2842L96.7617 32.5701ZM74.7429 64.1734L75.1203 64.5014L75.1379 64.4812L75.1532 64.4592L74.7429 64.1734ZM23.9702 104.521L24.3475 104.849L23.9702 104.521ZM16.6267 106.385L16.7181 105.894L16.6267 106.385ZM7.40123 101.623L7.72976 101.246L7.40123 101.623ZM1.419 93.1301L1.89341 92.9722L1.419 93.1301ZM2.25096 85.5902L1.87361 85.2622L2.25096 85.5902ZM35.3314 29.8218L34.9912 29.4553L34.9716 29.4735L34.954 29.4937L35.3314 29.8218ZM9.41229 84.7096L9.32099 85.2012L9.41229 84.7096ZM3.0048 86.2473L3.38215 86.5753L3.0048 86.2473ZM2.36708 92.8139L1.89267 92.9718L2.36708 92.8139ZM8.05731 100.868L8.38584 100.492L8.38584 100.492L8.05731 100.868ZM16.8088 105.402L16.9002 104.91L16.8088 105.402ZM23.2163 103.864L23.5937 104.192L23.2163 103.864ZM23.8541 97.2972L23.3797 97.4551L23.8541 97.2972ZM18.8356 98.3665L18.4582 98.0384L18.8356 98.3665ZM9.21542 89.9814L9.59277 90.3095L9.21542 89.9814ZM20.2753 91.3368L20.65 91.0058L20.2753 91.3368ZM15.5936 87.301L15.3217 87.7206L15.5936 87.301ZM45.4416 62.6778L45.7146 62.2589L45.4416 62.6778ZM42.6341 56.2363L42.2788 56.5882L42.6341 56.2363ZM40.5465 58.3718L40.1657 58.6959L40.5465 58.3718ZM39.013 52.0766L39.4112 51.7741L39.013 52.0766ZM52.0592 63.4976L52.3065 63.063L52.0592 63.4976ZM47.2931 60.3332L47.5967 59.936L47.2931 60.3332ZM62.2808 67.3415L62.3669 66.849L62.2808 67.3415ZM18.3118 93.1589L18.7272 92.8806L18.3118 93.1589ZM23.2137 80.781L22.8363 80.453L23.2137 80.781ZM25.8318 82.789L25.4545 82.4609L25.8318 82.789ZM14.0647 89.6118L14.2618 89.1523L14.0647 89.6118ZM88.8617 8.08939C84.2227 4.046 79.0567 1.45941 74.4358 0.564315C69.8295 -0.327967 65.658 0.44881 63.1793 3.30014L63.934 3.95622C66.0801 1.48749 69.8123 0.687291 74.2457 1.54607C78.6645 2.40203 83.6743 4.89453 88.2047 8.84323L88.8617 8.08939ZM97.1391 32.8981C99.6175 30.0471 99.8109 25.8036 98.2934 21.3587C96.7712 16.8996 93.5007 12.1328 88.8617 8.08939L88.2047 8.84323C92.735 12.7919 95.8912 17.417 97.3471 21.6817C98.8078 25.9606 98.5307 29.773 96.3844 32.242L97.1391 32.8981ZM75.1532 64.4592L97.1719 32.8559L96.3515 32.2842L74.3327 63.8876L75.1532 64.4592ZM62.1946 67.834C67.5011 68.7623 72.2636 67.7876 75.1203 64.5014L74.3656 63.8453C71.8318 66.7601 67.4952 67.7461 62.3669 66.849L62.1946 67.834ZM26.2092 83.117L37.9729 69.5849L37.2182 68.9289L25.4545 82.4609L26.2092 83.117ZM24.3475 104.849C26.1602 102.764 26.2568 99.7684 25.2766 96.8231L24.3277 97.1389C25.2512 99.9133 25.0787 102.484 23.5928 104.193L24.3475 104.849ZM16.5354 106.877C19.5843 107.443 22.5346 106.934 24.3475 104.849L23.5928 104.193C22.1072 105.902 19.5892 106.427 16.7181 105.894L16.5354 106.877ZM7.07271 102C10.0783 104.62 13.4602 106.306 16.5354 106.877L16.7181 105.894C13.8474 105.361 10.6245 103.769 7.72976 101.246L7.07271 102ZM0.944585 93.288C1.93337 96.2588 4.06708 99.3804 7.07271 102L7.72976 101.246C4.83505 98.7232 2.81663 95.746 1.89341 92.9722L0.944585 93.288ZM1.87361 85.2622C0.060914 87.3474 -0.0357049 90.3428 0.944585 93.288L1.89341 92.9722C0.969988 90.1978 1.14244 87.6275 2.62831 85.9183L1.87361 85.2622ZM9.6857 83.2342C6.6368 82.6679 3.68654 83.1767 1.87361 85.2622L2.62831 85.9183C4.11395 84.2093 6.63198 83.6841 9.50309 84.2174L9.6857 83.2342ZM34.8638 66.6175L22.8363 80.453L23.591 81.109L35.6185 67.2735L34.8638 66.6175ZM34.954 29.4937C32.1686 32.6979 31.8069 37.397 33.3197 42.3875L34.2767 42.0974C32.8169 37.2819 33.2375 32.9925 35.7087 30.1498L34.954 29.4937ZM63.2165 3.26168L34.9912 29.4553L35.6715 30.1883L63.8968 3.99468L63.2165 3.26168ZM36.7542 52.8703C37.393 54.7897 38.5557 56.8041 40.1657 58.6959L40.9273 58.0478C39.3867 56.2376 38.2952 54.3337 37.703 52.5545L36.7542 52.8703ZM38.6148 52.379C39.7052 53.8146 40.9294 55.2258 42.2788 56.5882L42.9893 55.8844C41.6699 54.5524 40.4745 53.1741 39.4112 51.7741L38.6148 52.379ZM45.1686 63.0966C47.3176 64.4973 49.5361 65.4121 51.5791 65.7916L51.7617 64.8084C49.8683 64.4567 47.7717 63.5996 45.7146 62.2589L45.1686 63.0966ZM46.9895 60.7305C48.5713 61.9394 50.1882 63.0085 51.812 63.9322L52.3065 63.063C50.7227 62.1621 49.1434 61.1181 47.5967 59.936L46.9895 60.7305ZM9.32099 85.2012C11.2001 85.5503 13.2795 86.3971 15.3217 87.7206L15.8656 86.8814C13.7317 85.4986 11.5312 84.5947 9.5036 84.2181L9.32099 85.2012ZM3.38215 86.5753C4.54177 85.2414 6.62941 84.7013 9.32099 85.2012L9.5036 84.2181C6.63193 83.6847 4.11329 84.2101 2.62745 85.9192L3.38215 86.5753ZM2.84149 92.656C1.97581 90.0551 2.22231 87.9095 3.38215 86.5753L2.62745 85.9192C1.14185 87.6282 0.969378 90.1978 1.89267 92.9718L2.84149 92.656ZM8.38584 100.492C5.60204 98.0652 3.69905 95.2325 2.84149 92.656L1.89267 92.9718C2.81578 95.7453 4.83404 98.7223 7.72878 101.245L8.38584 100.492ZM16.9002 104.91C14.2337 104.415 11.1696 102.918 8.38584 100.492L7.72878 101.245C10.6235 103.768 13.8466 105.36 16.7175 105.893L16.9002 104.91ZM22.839 103.536C21.6794 104.87 19.5917 105.41 16.9002 104.91L16.7175 105.893C19.5892 106.427 22.1079 105.901 23.5937 104.192L22.839 103.536ZM23.3797 97.4551C24.2453 100.056 23.9988 102.202 22.839 103.536L23.5937 104.192C25.0793 102.483 25.2518 99.9134 24.3285 97.1394L23.3797 97.4551ZM19.9005 91.6678C21.5756 93.5644 22.7552 95.579 23.3797 97.4551L24.3285 97.1394C23.655 95.1158 22.3992 92.9863 20.65 91.0058L19.9005 91.6678ZM19.2129 98.6945C19.8524 97.9589 20.0611 96.9885 19.9498 95.9796C19.8387 94.9728 19.4084 93.8973 18.7272 92.8806L17.8964 93.4372C18.5098 94.3526 18.8662 95.2771 18.9558 96.0892C19.0452 96.8992 18.8685 97.5665 18.4582 98.0384L19.2129 98.6945ZM11.1307 97.5029C12.517 98.7112 14.0893 99.4768 15.5292 99.719C16.9595 99.9595 18.3471 99.6904 19.2129 98.6945L18.4582 98.0384C17.9067 98.6729 16.9344 98.9412 15.6951 98.7328C14.4653 98.526 13.0581 97.8562 11.7878 96.749L11.1307 97.5029ZM8.83807 89.6534C7.97251 90.6491 7.89768 92.0617 8.33263 93.4466C8.77053 94.8409 9.74445 96.2946 11.1307 97.5029L11.7878 96.749C10.5175 95.6419 9.66089 94.3384 9.28668 93.147C8.90952 91.946 9.04104 90.9441 9.59277 90.3095L8.83807 89.6534ZM14.2618 89.1523C12.2346 88.2827 10.0441 88.266 8.83807 89.6534L9.59277 90.3095C10.3608 89.426 11.9732 89.2587 13.8676 90.0713L14.2618 89.1523ZM20.65 91.0058C19.9264 90.1865 18.6786 90.2553 17.9905 91.0469L18.7452 91.703C19.0661 91.3339 19.606 91.3344 19.9005 91.6678L20.65 91.0058ZM16.2144 89.5945C16.9233 88.7791 16.8115 87.4944 15.8656 86.8814L15.3217 87.7206C15.7186 87.9778 15.8006 88.5463 15.4597 88.9384L16.2144 89.5945ZM45.7146 62.2589C45.2581 61.9613 45.1683 61.3079 45.559 60.8585L44.8043 60.2024C44.0489 61.0713 44.1617 62.4404 45.1686 63.0966L45.7146 62.2589ZM43.0971 58.6708C43.8069 57.8542 43.7362 56.6385 42.9893 55.8844L42.2788 56.5882C42.672 56.9851 42.6954 57.6086 42.3424 58.0147L43.0971 58.6708ZM40.1657 58.6959C40.9511 59.6187 42.336 59.5462 43.0971 58.6708L42.3424 58.0147C41.9484 58.4679 41.2829 58.4656 40.9273 58.0478L40.1657 58.6959ZM37.703 52.5545C37.6252 52.3208 37.6493 52.1831 37.6765 52.1174C37.7018 52.0565 37.7463 52.0144 37.8167 51.9907C37.9651 51.941 38.307 51.9736 38.6148 52.379L39.4112 51.7741C38.9078 51.1114 38.1456 50.8257 37.4987 51.0426C37.1715 51.1524 36.8956 51.3899 36.7528 51.7344C36.6119 52.0741 36.6202 52.4676 36.7542 52.8703L37.703 52.5545ZM51.5791 65.7916C51.9855 65.8671 52.3676 65.8217 52.6787 65.639C52.9935 65.4542 53.1883 65.1552 53.2536 64.8237C53.3829 64.167 53.0115 63.4641 52.3065 63.063L51.812 63.9322C52.2309 64.1705 52.3007 64.4868 52.2724 64.6305C52.2589 64.6992 52.2252 64.7457 52.1724 64.7767C52.1157 64.81 51.9909 64.851 51.7617 64.8084L51.5791 65.7916ZM47.5967 59.936C46.7465 59.2862 45.52 59.3791 44.8043 60.2024L45.559 60.8585C45.9148 60.4492 46.542 60.3885 46.9895 60.7305L47.5967 59.936ZM62.3669 66.849C60.5838 66.537 58.7287 66.4336 56.9113 66.3272C55.0824 66.2201 53.2901 66.1099 51.5796 65.7922L51.3969 66.7754C53.1789 67.1064 55.0333 67.219 56.8528 67.3255C58.6837 67.4327 60.4787 67.5338 62.1946 67.834L62.3669 66.849ZM17.9905 91.0469C17.3851 91.7433 17.4242 92.7324 17.8964 93.4372L18.7272 92.8806C18.4637 92.4873 18.4833 92.0042 18.7452 91.703L17.9905 91.0469ZM9.50309 84.2174C14.3752 85.1223 20.1625 85.053 23.591 81.109L22.8363 80.453C19.7901 83.9571 14.5166 84.1315 9.6857 83.2342L9.50309 84.2174ZM36.7549 52.8707C36.1951 51.1887 35.8426 49.3906 35.4958 47.5538C35.1511 45.7286 34.8116 43.8618 34.2767 42.0974L33.3197 42.3875C33.8357 44.0895 34.1653 45.8974 34.5131 47.7394C34.8588 49.5699 35.222 51.4315 35.8061 53.1865L36.7549 52.8707ZM25.4545 82.4609C21.9584 86.4825 22.7315 92.3432 24.3277 97.1389L25.2766 96.8231C23.6917 92.0614 23.0967 86.6974 26.2092 83.117L25.4545 82.4609ZM35.6185 67.2735C39.051 63.3251 38.3219 57.5788 36.7549 52.8707L35.8061 53.1865C37.3599 57.8548 37.9147 63.1079 34.8638 66.6175L35.6185 67.2735ZM15.4597 88.9384C15.191 89.2475 14.7084 89.3438 14.2618 89.1523L13.8676 90.0713C14.6411 90.4031 15.612 90.2874 16.2144 89.5945L15.4597 88.9384ZM51.5796 65.7922C46.6167 64.8704 40.7102 64.9119 37.2182 68.9289L37.9729 69.5849C41.0806 66.0101 46.4694 65.8602 51.3969 66.7754L51.5796 65.7922Z" fill="url(#paint0_linear_372_675)"/>
<path d="M91.6747 35.509L72.5039 62.0595C68.3459 66.8424 57.1532 63.902 47.5041 55.4917C37.8551 47.0815 33.4037 36.3863 37.5616 31.6034L65.6651 5.09111" stroke="url(#paint1_linear_372_675)"/>
<ellipse rx="19.9656" ry="11.7345" transform="matrix(0.753841 0.657057 -0.656074 0.754697 74.6922 24.2142)" stroke="url(#paint2_linear_372_675)"/>
<ellipse rx="22.1065" ry="13.195" transform="matrix(0.753841 0.657057 -0.656073 0.754697 79.558 18.6197)" stroke="white"/>
<ellipse rx="27.308" ry="16.2997" transform="matrix(0.753841 0.657057 -0.656073 0.754697 105.625 85.088)" stroke="white"/>
<ellipse rx="9.58348" ry="5.72021" transform="matrix(0.753841 0.657057 -0.656074 0.754697 130.943 16.5202)" stroke="white"/>
<path fill-rule="evenodd" clip-rule="evenodd" d="M82.9618 45.4003C82.484 45.0971 82.3243 44.4811 82.5246 43.9519C82.9923 42.7157 83.1676 41.4 83.0573 40.1079C82.8665 37.8708 83.2178 35.3865 83.281 33.1422C83.326 31.5455 82.6833 29.9419 81.3862 28.8113C80.2356 27.8084 78.7879 27.3676 77.3775 27.4655C76.4347 27.531 75.2863 26.7579 74.5739 26.1369C73.609 25.2959 72.1459 25.3974 71.306 26.3636C70.4661 27.3297 70.5674 28.7947 71.5323 29.6358C72.0728 30.1069 72.5608 30.9771 72.3919 31.6739C72.3897 31.6831 72.3875 31.6924 72.3853 31.7016C72.2922 32.0945 72.0081 32.4225 71.6245 32.5487C71.5256 32.5813 71.4271 32.6157 71.3292 32.6518C70.1999 33.0689 68.5155 32.3092 67.8839 31.2843C67.5984 30.8211 67.2393 30.3926 66.8078 30.0165C66.5375 29.781 66.2509 29.5764 65.9522 29.4026C62.2669 27.2576 56.6369 28.6958 53.0365 26.4112C49.5906 24.2245 45.1042 24.6329 42.1097 27.4058L37.4998 31.6745C33.3419 36.4575 37.7933 47.1527 47.4424 55.5629C57.0914 63.9731 68.2842 66.9136 72.4421 62.1306L83.2659 46.957C83.6297 46.4469 83.4909 45.736 82.9618 45.4003ZM62.4322 16.5174C62.1028 16.8964 61.5288 16.9362 61.1504 16.6063C60.7719 16.2764 60.7321 15.7017 61.0616 15.3227C61.391 14.9437 61.965 14.9039 62.3435 15.2338C62.722 15.5637 62.7617 16.1384 62.4322 16.5174ZM64.6638 26.0573C63.2283 27.7086 60.7278 27.882 59.0787 26.4446C58.2542 25.7259 57.7986 24.7407 57.7286 23.7287C57.693 23.214 57.3308 22.7422 56.9419 22.4032C56.2284 21.7814 56.1535 20.6982 56.7745 19.9838C57.3956 19.2694 58.4773 19.1944 59.1908 19.8163C59.378 19.9794 59.6534 20.0379 59.8745 19.9247C61.2715 19.2097 63.0212 19.3702 64.277 20.4648C65.9261 21.9022 66.0993 24.406 64.6638 26.0573Z" fill="white"/>
<path d="M91.2414 35.8599L102.647 64.1255M98.0164 23.6434L123.767 16.8755" stroke="white"/>
<defs>
<linearGradient id="paint0_linear_372_675" x1="88.5583" y1="8.48814" x2="11.2255" y2="97.3288" gradientUnits="userSpaceOnUse">
<stop stop-color="white" stop-opacity="0"/>
<stop offset="0.0001" stop-color="white" stop-opacity="0"/>
<stop offset="1" stop-color="white" stop-opacity="0.6"/>
</linearGradient>
<linearGradient id="paint1_linear_372_675" x1="80.2599" y1="17.812" x2="47.4551" y2="55.449" gradientUnits="userSpaceOnUse">
<stop stop-color="white" stop-opacity="0"/>
<stop offset="0.0001" stop-color="white" stop-opacity="0"/>
<stop offset="1" stop-color="white" stop-opacity="0.6"/>
</linearGradient>
<linearGradient id="paint2_linear_372_675" x1="19.9656" y1="0" x2="19.9656" y2="23.469" gradientUnits="userSpaceOnUse">
<stop stop-color="white" stop-opacity="0"/>
<stop offset="0.0001" stop-color="white" stop-opacity="0"/>
<stop offset="1" stop-color="white" stop-opacity="0.6"/>
</linearGradient>
</defs>
</svg>
